G75*
%MOIN*%
%OFA0B0*%
%FSLAX25Y25*%
%IPPOS*%
%LPD*%
%AMOC8*
5,1,8,0,0,1.08239X$1,22.5*
%
%ADD10R,0.05906X0.11417*%
%ADD11R,0.07087X0.06693*%
%ADD12R,0.04331X0.02756*%
%ADD13R,0.07087X0.02756*%
%ADD14R,0.13386X0.07283*%
%ADD15R,0.15748X0.21654*%
%ADD16R,0.12598X0.07087*%
%ADD17R,0.13000X0.07000*%
%ADD18C,0.23622*%
%ADD19C,0.23622*%
%ADD20R,0.05118X0.06299*%
%ADD21R,0.03500X0.03100*%
%ADD22R,0.05118X0.05906*%
%ADD23OC8,0.05937*%
%ADD24R,0.05512X0.05512*%
%ADD25OC8,0.06300*%
%ADD26OC8,0.07600*%
%ADD27C,0.02700*%
%ADD28C,0.01600*%
%ADD29C,0.02781*%
%ADD30C,0.03569*%
D10*
X0095894Y0194300D03*
X0107706Y0194300D03*
D11*
X0109871Y0179300D03*
X0093729Y0179300D03*
D12*
X0092410Y0167706D03*
X0092410Y0155894D03*
X0108178Y0155894D03*
X0108178Y0167706D03*
D13*
X0093788Y0161800D03*
D14*
X0103769Y0161800D03*
D15*
X0073454Y0156800D03*
X0030146Y0156800D03*
D16*
X0124300Y0150776D03*
X0124300Y0172824D03*
D17*
X0101800Y0066800D03*
G36*
X0115639Y0056624D02*
X0124831Y0065816D01*
X0129781Y0060866D01*
X0120589Y0051674D01*
X0115639Y0056624D01*
G37*
G36*
X0083819Y0017734D02*
X0093011Y0026926D01*
X0097961Y0021976D01*
X0088769Y0012784D01*
X0083819Y0017734D01*
G37*
G36*
X0064124Y0030461D02*
X0073316Y0021269D01*
X0068366Y0016319D01*
X0059174Y0025511D01*
X0064124Y0030461D01*
G37*
X0051800Y0061800D03*
G36*
X0025234Y0062281D02*
X0034426Y0053089D01*
X0029476Y0048139D01*
X0020284Y0057331D01*
X0025234Y0062281D01*
G37*
D18*
X0076800Y0064300D03*
D19*
X0106800Y0039300D02*
X0106801Y0039300D01*
X0106801Y0039299D01*
X0106800Y0039299D01*
X0106799Y0039299D01*
X0106799Y0039300D01*
X0106799Y0039301D01*
X0106800Y0039301D01*
X0106801Y0039301D01*
X0106801Y0039300D01*
X0046800Y0039300D02*
X0046801Y0039300D01*
X0046801Y0039299D01*
X0046800Y0039299D01*
X0046799Y0039299D01*
X0046799Y0039300D01*
X0046799Y0039301D01*
X0046800Y0039301D01*
X0046801Y0039301D01*
X0046801Y0039300D01*
D20*
X0045737Y0081800D03*
X0037863Y0081800D03*
D21*
X0092800Y0116700D03*
X0100800Y0112900D03*
X0100800Y0120500D03*
D22*
X0100540Y0104300D03*
X0093060Y0104300D03*
D23*
X0116800Y0114300D03*
X0116800Y0129300D03*
D24*
X0103906Y0129300D03*
X0089694Y0129300D03*
D25*
X0116800Y0081800D03*
X0126800Y0081800D03*
D26*
X0061643Y0098394D03*
X0051800Y0118080D03*
X0041957Y0098394D03*
D27*
X0026800Y0092863D02*
X0037863Y0081800D01*
X0037863Y0065718D01*
X0027355Y0055210D01*
X0045737Y0081800D02*
X0051800Y0081800D01*
X0051800Y0061800D01*
X0051800Y0081800D02*
X0069729Y0081800D01*
X0076800Y0088871D01*
X0076800Y0127229D01*
X0088871Y0139300D01*
X0096800Y0139300D01*
X0096800Y0139398D01*
X0108178Y0150776D01*
X0108178Y0155894D01*
X0108178Y0150776D02*
X0124300Y0150776D01*
X0136800Y0170122D02*
X0136800Y0096800D01*
X0126800Y0086800D01*
X0126800Y0081800D01*
X0116800Y0081800D02*
X0116800Y0086800D01*
X0109300Y0094300D01*
X0109300Y0115358D01*
X0104158Y0120500D01*
X0100800Y0120500D01*
X0103906Y0120500D01*
X0103906Y0129300D01*
X0092800Y0116800D02*
X0092800Y0116700D01*
X0091802Y0116700D01*
X0089300Y0114198D01*
X0089300Y0111800D01*
X0093060Y0109092D02*
X0093060Y0106800D01*
X0093060Y0104300D01*
X0093060Y0106800D02*
X0086800Y0106800D01*
X0084300Y0109300D01*
X0084300Y0123906D01*
X0089694Y0129300D01*
X0096867Y0112900D02*
X0093060Y0109092D01*
X0096867Y0112900D02*
X0100800Y0112900D01*
X0101800Y0066800D02*
X0114655Y0066800D01*
X0122710Y0058745D01*
X0090890Y0019855D02*
X0066245Y0019855D01*
X0066245Y0023390D01*
X0026800Y0092863D02*
X0026800Y0156800D01*
X0030146Y0156800D01*
X0073454Y0156800D02*
X0073454Y0159310D01*
X0081849Y0167706D01*
X0092410Y0167706D01*
X0092410Y0179300D01*
X0093729Y0179300D01*
X0107706Y0179300D02*
X0107706Y0172824D01*
X0124300Y0172824D01*
X0134099Y0172824D01*
X0136800Y0170122D01*
X0109871Y0179300D02*
X0107706Y0179300D01*
X0107706Y0194300D01*
X0107706Y0172824D02*
X0107706Y0167706D01*
X0108178Y0167706D01*
D28*
X0010513Y0014176D02*
X0012055Y0012055D01*
X0014176Y0010513D01*
X0016669Y0009703D01*
X0017980Y0009600D01*
X0135620Y0009600D01*
X0136931Y0009703D01*
X0139424Y0010513D01*
X0141545Y0012055D01*
X0143087Y0014176D01*
X0143897Y0016669D01*
X0144000Y0017980D01*
X0144000Y0195620D01*
X0143897Y0196931D01*
X0143087Y0199424D01*
X0141545Y0201545D01*
X0139424Y0203087D01*
X0136931Y0203897D01*
X0135620Y0204000D01*
X0017980Y0204000D01*
X0016669Y0203897D01*
X0014176Y0203087D01*
X0012055Y0201545D01*
X0010513Y0199424D01*
X0009703Y0196931D01*
X0009600Y0195620D01*
X0009600Y0017980D01*
X0009703Y0016669D01*
X0010513Y0014176D01*
X0010632Y0014012D02*
X0016879Y0014012D01*
X0018207Y0013125D02*
X0015160Y0015160D01*
X0015160Y0015160D01*
X0015160Y0015160D01*
X0013125Y0018207D01*
X0013125Y0018207D01*
X0012410Y0021800D01*
X0012410Y0021800D01*
X0013125Y0025393D01*
X0013125Y0025393D01*
X0015160Y0028440D01*
X0015160Y0028440D01*
X0015160Y0028440D01*
X0018207Y0030475D01*
X0018207Y0030475D01*
X0021800Y0031190D01*
X0021800Y0031190D01*
X0025393Y0030475D01*
X0025393Y0030475D01*
X0028440Y0028440D01*
X0028440Y0028440D01*
X0028440Y0028440D01*
X0030475Y0025393D01*
X0030475Y0025393D01*
X0031190Y0021800D01*
X0030475Y0018207D01*
X0030475Y0018207D01*
X0028440Y0015160D01*
X0028440Y0015160D01*
X0028440Y0015160D01*
X0025393Y0013125D01*
X0025393Y0013125D01*
X0021800Y0012410D01*
X0021800Y0012410D01*
X0018207Y0013125D01*
X0018207Y0013125D01*
X0014860Y0015610D02*
X0010047Y0015610D01*
X0009661Y0017209D02*
X0013792Y0017209D01*
X0013005Y0018807D02*
X0009600Y0018807D01*
X0009600Y0020406D02*
X0012688Y0020406D01*
X0012451Y0022004D02*
X0009600Y0022004D01*
X0009600Y0023603D02*
X0012769Y0023603D01*
X0013087Y0025201D02*
X0009600Y0025201D01*
X0009600Y0026800D02*
X0014065Y0026800D01*
X0015133Y0028399D02*
X0009600Y0028399D01*
X0009600Y0029997D02*
X0017491Y0029997D01*
X0009600Y0031596D02*
X0035578Y0031596D01*
X0035854Y0031182D02*
X0036619Y0030250D01*
X0045669Y0039300D01*
X0046800Y0038169D01*
X0037750Y0029119D01*
X0038682Y0028354D01*
X0039794Y0027611D01*
X0040974Y0026981D01*
X0042209Y0026469D01*
X0043489Y0026081D01*
X0044800Y0025820D01*
X0046131Y0025689D01*
X0047469Y0025689D01*
X0048800Y0025820D01*
X0050111Y0026081D01*
X0051391Y0026469D01*
X0052626Y0026981D01*
X0053806Y0027611D01*
X0054918Y0028354D01*
X0055850Y0029119D01*
X0046800Y0038169D01*
X0047931Y0039300D01*
X0046800Y0040431D01*
X0045669Y0039300D01*
X0036619Y0048350D01*
X0035854Y0047418D01*
X0035111Y0046306D01*
X0034481Y0045126D01*
X0033969Y0043891D01*
X0033581Y0042611D01*
X0033320Y0041300D01*
X0033189Y0039969D01*
X0033189Y0038631D01*
X0033320Y0037300D01*
X0033581Y0035989D01*
X0033969Y0034709D01*
X0034481Y0033474D01*
X0035111Y0032294D01*
X0035854Y0031182D01*
X0037964Y0031596D02*
X0040227Y0031596D01*
X0039563Y0033194D02*
X0041825Y0033194D01*
X0041161Y0034793D02*
X0043424Y0034793D01*
X0042760Y0036391D02*
X0045022Y0036391D01*
X0044358Y0037990D02*
X0046621Y0037990D01*
X0046979Y0037990D02*
X0049242Y0037990D01*
X0048578Y0036391D02*
X0050840Y0036391D01*
X0050176Y0034793D02*
X0052439Y0034793D01*
X0051775Y0033194D02*
X0054037Y0033194D01*
X0053373Y0031596D02*
X0055636Y0031596D01*
X0054972Y0029997D02*
X0060832Y0029997D01*
X0062430Y0031596D02*
X0058022Y0031596D01*
X0057746Y0031182D02*
X0058489Y0032294D01*
X0059119Y0033474D01*
X0059631Y0034709D01*
X0060019Y0035989D01*
X0060280Y0037300D01*
X0060411Y0038631D01*
X0060411Y0039969D01*
X0060280Y0041300D01*
X0060019Y0042611D01*
X0059631Y0043891D01*
X0059119Y0045126D01*
X0058489Y0046306D01*
X0057746Y0047418D01*
X0056981Y0048350D01*
X0047931Y0039300D01*
X0056981Y0030250D01*
X0057746Y0031182D01*
X0058970Y0033194D02*
X0094630Y0033194D01*
X0094481Y0033474D02*
X0095111Y0032294D01*
X0095854Y0031182D01*
X0096619Y0030250D01*
X0105669Y0039300D01*
X0106800Y0038169D01*
X0097750Y0029119D01*
X0098682Y0028354D01*
X0099794Y0027611D01*
X0100974Y0026981D01*
X0102209Y0026469D01*
X0103489Y0026081D01*
X0104800Y0025820D01*
X0106131Y0025689D01*
X0107469Y0025689D01*
X0108800Y0025820D01*
X0110111Y0026081D01*
X0111391Y0026469D01*
X0112626Y0026981D01*
X0113806Y0027611D01*
X0114918Y0028354D01*
X0115850Y0029119D01*
X0106800Y0038169D01*
X0107931Y0039300D01*
X0116981Y0030250D01*
X0117746Y0031182D01*
X0118489Y0032294D01*
X0119119Y0033474D01*
X0119631Y0034709D01*
X0120019Y0035989D01*
X0120280Y0037300D01*
X0120411Y0038631D01*
X0120411Y0039969D01*
X0120280Y0041300D01*
X0120019Y0042611D01*
X0119631Y0043891D01*
X0119119Y0045126D01*
X0118489Y0046306D01*
X0117746Y0047418D01*
X0116981Y0048350D01*
X0107931Y0039300D01*
X0106800Y0040431D01*
X0105669Y0039300D01*
X0096619Y0048350D01*
X0095854Y0047418D01*
X0095111Y0046306D01*
X0094481Y0045126D01*
X0093969Y0043891D01*
X0093581Y0042611D01*
X0093320Y0041300D01*
X0093189Y0039969D01*
X0093189Y0038631D01*
X0093320Y0037300D01*
X0093581Y0035989D01*
X0093969Y0034709D01*
X0094481Y0033474D01*
X0093944Y0034793D02*
X0059656Y0034793D01*
X0060099Y0036391D02*
X0093501Y0036391D01*
X0093252Y0037990D02*
X0060348Y0037990D01*
X0060411Y0039588D02*
X0093189Y0039588D01*
X0093309Y0041187D02*
X0060291Y0041187D01*
X0059966Y0042785D02*
X0093634Y0042785D01*
X0094173Y0044384D02*
X0059427Y0044384D01*
X0058662Y0045982D02*
X0094938Y0045982D01*
X0095988Y0047581D02*
X0057612Y0047581D01*
X0056212Y0047581D02*
X0053949Y0047581D01*
X0054613Y0045982D02*
X0052351Y0045982D01*
X0053015Y0044384D02*
X0050752Y0044384D01*
X0051416Y0042785D02*
X0049154Y0042785D01*
X0049818Y0041187D02*
X0047555Y0041187D01*
X0046800Y0040431D02*
X0055850Y0049481D01*
X0054918Y0050246D01*
X0053806Y0050989D01*
X0052626Y0051619D01*
X0051391Y0052131D01*
X0050111Y0052519D01*
X0048800Y0052780D01*
X0047469Y0052911D01*
X0046131Y0052911D01*
X0044800Y0052780D01*
X0043489Y0052519D01*
X0042209Y0052131D01*
X0040974Y0051619D01*
X0039794Y0050989D01*
X0038682Y0050246D01*
X0037750Y0049481D01*
X0046800Y0040431D01*
X0046045Y0041187D02*
X0043782Y0041187D01*
X0044446Y0042785D02*
X0042184Y0042785D01*
X0042848Y0044384D02*
X0040585Y0044384D01*
X0041249Y0045982D02*
X0038987Y0045982D01*
X0039651Y0047581D02*
X0037388Y0047581D01*
X0035988Y0047581D02*
X0031746Y0047581D01*
X0030304Y0046139D02*
X0036426Y0052260D01*
X0036426Y0053917D01*
X0033612Y0056730D01*
X0040703Y0063821D01*
X0041213Y0065052D01*
X0041213Y0076650D01*
X0041250Y0076650D01*
X0041800Y0077200D01*
X0042350Y0076650D01*
X0048450Y0076650D01*
X0048450Y0067300D01*
X0044472Y0067300D01*
X0043300Y0066128D01*
X0043300Y0057472D01*
X0044472Y0056300D01*
X0059128Y0056300D01*
X0060300Y0057472D01*
X0060300Y0066128D01*
X0059128Y0067300D01*
X0055150Y0067300D01*
X0055150Y0078450D01*
X0070395Y0078450D01*
X0071627Y0078960D01*
X0072569Y0079902D01*
X0079640Y0086973D01*
X0080150Y0088205D01*
X0080150Y0125841D01*
X0084938Y0130629D01*
X0084938Y0129282D01*
X0082402Y0126746D01*
X0081460Y0125804D01*
X0080950Y0124573D01*
X0080950Y0108634D01*
X0081460Y0107402D01*
X0083960Y0104902D01*
X0084902Y0103960D01*
X0086134Y0103450D01*
X0088501Y0103450D01*
X0088501Y0100519D01*
X0089672Y0099347D01*
X0096447Y0099347D01*
X0096959Y0099859D01*
X0097286Y0099670D01*
X0097744Y0099547D01*
X0100061Y0099547D01*
X0100061Y0103820D01*
X0101020Y0103820D01*
X0101020Y0099547D01*
X0103336Y0099547D01*
X0103794Y0099670D01*
X0104204Y0099907D01*
X0104540Y0100242D01*
X0104777Y0100652D01*
X0104899Y0101110D01*
X0104899Y0103820D01*
X0101020Y0103820D01*
X0101020Y0104780D01*
X0100061Y0104780D01*
X0100061Y0109053D01*
X0097758Y0109053D01*
X0098138Y0109433D01*
X0098222Y0109350D01*
X0103378Y0109350D01*
X0104550Y0110522D01*
X0104550Y0115278D01*
X0103378Y0116450D01*
X0098222Y0116450D01*
X0098022Y0116250D01*
X0096550Y0116250D01*
X0096550Y0119078D01*
X0095378Y0120250D01*
X0090222Y0120250D01*
X0089050Y0119078D01*
X0089050Y0118686D01*
X0087650Y0117286D01*
X0087650Y0122519D01*
X0089675Y0124544D01*
X0093278Y0124544D01*
X0094450Y0125716D01*
X0094450Y0132884D01*
X0093278Y0134056D01*
X0088365Y0134056D01*
X0090259Y0135950D01*
X0097466Y0135950D01*
X0098698Y0136460D01*
X0099640Y0137402D01*
X0099710Y0137570D01*
X0109566Y0147426D01*
X0116001Y0147426D01*
X0116001Y0146405D01*
X0117172Y0145233D01*
X0131428Y0145233D01*
X0132599Y0146405D01*
X0132599Y0155148D01*
X0131428Y0156320D01*
X0117172Y0156320D01*
X0116001Y0155148D01*
X0116001Y0154126D01*
X0112343Y0154126D01*
X0112343Y0158101D01*
X0112261Y0158183D01*
X0112261Y0161000D01*
X0104569Y0161000D01*
X0104569Y0162600D01*
X0112261Y0162600D01*
X0112261Y0165417D01*
X0112343Y0165499D01*
X0112343Y0169474D01*
X0116001Y0169474D01*
X0116001Y0168452D01*
X0117172Y0167280D01*
X0131428Y0167280D01*
X0132599Y0168452D01*
X0132599Y0169474D01*
X0132711Y0169474D01*
X0133450Y0168735D01*
X0133450Y0098188D01*
X0124902Y0089640D01*
X0123960Y0088698D01*
X0123450Y0087466D01*
X0123450Y0085733D01*
X0121800Y0084083D01*
X0120150Y0085733D01*
X0120150Y0087466D01*
X0119640Y0088698D01*
X0118698Y0089640D01*
X0112650Y0095688D01*
X0112650Y0111423D01*
X0114742Y0109331D01*
X0118858Y0109331D01*
X0121768Y0112242D01*
X0121768Y0116358D01*
X0118858Y0119268D01*
X0114742Y0119268D01*
X0112313Y0116839D01*
X0112140Y0117256D01*
X0111198Y0118198D01*
X0107256Y0122139D01*
X0107256Y0124544D01*
X0107491Y0124544D01*
X0108662Y0125716D01*
X0108662Y0132884D01*
X0107491Y0134056D01*
X0100322Y0134056D01*
X0099150Y0132884D01*
X0099150Y0125716D01*
X0100322Y0124544D01*
X0100556Y0124544D01*
X0100556Y0124050D01*
X0098222Y0124050D01*
X0097050Y0122878D01*
X0097050Y0118122D01*
X0098222Y0116950D01*
X0102970Y0116950D01*
X0105950Y0113970D01*
X0105950Y0093634D01*
X0106460Y0092402D01*
X0113290Y0085573D01*
X0111650Y0083933D01*
X0111650Y0079667D01*
X0114667Y0076650D01*
X0118933Y0076650D01*
X0121800Y0079517D01*
X0124667Y0076650D01*
X0128933Y0076650D01*
X0131950Y0079667D01*
X0131950Y0083933D01*
X0130310Y0085573D01*
X0139640Y0094902D01*
X0140150Y0096134D01*
X0140150Y0170789D01*
X0139640Y0172020D01*
X0138698Y0172962D01*
X0136939Y0174721D01*
X0135996Y0175664D01*
X0134765Y0176174D01*
X0132599Y0176174D01*
X0132599Y0177195D01*
X0131428Y0178367D01*
X0117172Y0178367D01*
X0116001Y0177195D01*
X0116001Y0176174D01*
X0115414Y0176174D01*
X0115414Y0183475D01*
X0114243Y0184646D01*
X0111055Y0184646D01*
X0111055Y0186591D01*
X0111487Y0186591D01*
X0112658Y0187763D01*
X0112658Y0200837D01*
X0111487Y0202009D01*
X0103924Y0202009D01*
X0102753Y0200837D01*
X0102753Y0187763D01*
X0103924Y0186591D01*
X0104356Y0186591D01*
X0104356Y0183503D01*
X0104328Y0183475D01*
X0104328Y0175125D01*
X0104356Y0175097D01*
X0104356Y0170255D01*
X0104013Y0169912D01*
X0104013Y0165499D01*
X0104568Y0164943D01*
X0104568Y0162600D01*
X0102969Y0162600D01*
X0102969Y0167242D01*
X0096839Y0167242D01*
X0096576Y0167171D01*
X0096576Y0169912D01*
X0095760Y0170727D01*
X0095760Y0173954D01*
X0098101Y0173954D01*
X0099272Y0175125D01*
X0099272Y0183475D01*
X0098101Y0184646D01*
X0089357Y0184646D01*
X0088186Y0183475D01*
X0088186Y0175125D01*
X0089060Y0174251D01*
X0089060Y0171055D01*
X0081183Y0171055D01*
X0079951Y0170545D01*
X0079033Y0169627D01*
X0064751Y0169627D01*
X0063800Y0168676D01*
X0063800Y0182628D01*
X0062628Y0183800D01*
X0040972Y0183800D01*
X0039800Y0182628D01*
X0039800Y0168676D01*
X0038849Y0169627D01*
X0021444Y0169627D01*
X0020272Y0168455D01*
X0020272Y0145145D01*
X0021444Y0143973D01*
X0023450Y0143973D01*
X0023450Y0092197D01*
X0023960Y0090965D01*
X0033304Y0081621D01*
X0033304Y0077822D01*
X0034476Y0076650D01*
X0034513Y0076650D01*
X0034513Y0067106D01*
X0028875Y0061468D01*
X0026062Y0064281D01*
X0024405Y0064281D01*
X0018283Y0058160D01*
X0018283Y0056503D01*
X0028647Y0046139D01*
X0030304Y0046139D01*
X0027206Y0047581D02*
X0009600Y0047581D01*
X0009600Y0049179D02*
X0025607Y0049179D01*
X0024009Y0050778D02*
X0009600Y0050778D01*
X0009600Y0052376D02*
X0022410Y0052376D01*
X0020812Y0053975D02*
X0009600Y0053975D01*
X0009600Y0055573D02*
X0019213Y0055573D01*
X0018283Y0057172D02*
X0009600Y0057172D01*
X0009600Y0058770D02*
X0018894Y0058770D01*
X0020493Y0060369D02*
X0009600Y0060369D01*
X0009600Y0061967D02*
X0022091Y0061967D01*
X0023690Y0063566D02*
X0009600Y0063566D01*
X0009600Y0065164D02*
X0032571Y0065164D01*
X0030973Y0063566D02*
X0026777Y0063566D01*
X0028375Y0061967D02*
X0029374Y0061967D01*
X0034054Y0057172D02*
X0043600Y0057172D01*
X0043300Y0058770D02*
X0035652Y0058770D01*
X0037251Y0060369D02*
X0043300Y0060369D01*
X0043300Y0061967D02*
X0038850Y0061967D01*
X0040448Y0063566D02*
X0043300Y0063566D01*
X0043300Y0065164D02*
X0041213Y0065164D01*
X0041213Y0066763D02*
X0043934Y0066763D01*
X0041213Y0068361D02*
X0048450Y0068361D01*
X0048450Y0069960D02*
X0041213Y0069960D01*
X0041213Y0071558D02*
X0048450Y0071558D01*
X0048450Y0073157D02*
X0041213Y0073157D01*
X0041213Y0074755D02*
X0048450Y0074755D01*
X0048450Y0076354D02*
X0041213Y0076354D01*
X0034513Y0076354D02*
X0009600Y0076354D01*
X0009600Y0077952D02*
X0033304Y0077952D01*
X0033304Y0079551D02*
X0009600Y0079551D01*
X0009600Y0081149D02*
X0033304Y0081149D01*
X0032177Y0082748D02*
X0009600Y0082748D01*
X0009600Y0084346D02*
X0030579Y0084346D01*
X0028980Y0085945D02*
X0009600Y0085945D01*
X0009600Y0087543D02*
X0027382Y0087543D01*
X0025783Y0089142D02*
X0009600Y0089142D01*
X0009600Y0090740D02*
X0024185Y0090740D01*
X0023450Y0092339D02*
X0009600Y0092339D01*
X0009600Y0093937D02*
X0023450Y0093937D01*
X0023450Y0095536D02*
X0009600Y0095536D01*
X0009600Y0097134D02*
X0023450Y0097134D01*
X0023450Y0098733D02*
X0009600Y0098733D01*
X0009600Y0100332D02*
X0023450Y0100332D01*
X0023450Y0101930D02*
X0009600Y0101930D01*
X0009600Y0103529D02*
X0023450Y0103529D01*
X0023450Y0105127D02*
X0009600Y0105127D01*
X0009600Y0106726D02*
X0023450Y0106726D01*
X0023450Y0108324D02*
X0009600Y0108324D01*
X0009600Y0109923D02*
X0023450Y0109923D01*
X0023450Y0111521D02*
X0009600Y0111521D01*
X0009600Y0113120D02*
X0023450Y0113120D01*
X0023450Y0114718D02*
X0009600Y0114718D01*
X0009600Y0116317D02*
X0023450Y0116317D01*
X0023450Y0117915D02*
X0009600Y0117915D01*
X0009600Y0119514D02*
X0023450Y0119514D01*
X0023450Y0121112D02*
X0009600Y0121112D01*
X0009600Y0122711D02*
X0023450Y0122711D01*
X0023450Y0124309D02*
X0009600Y0124309D01*
X0009600Y0125908D02*
X0023450Y0125908D01*
X0023450Y0127506D02*
X0009600Y0127506D01*
X0009600Y0129105D02*
X0023450Y0129105D01*
X0023450Y0130703D02*
X0009600Y0130703D01*
X0009600Y0132302D02*
X0023450Y0132302D01*
X0023450Y0133900D02*
X0009600Y0133900D01*
X0009600Y0135499D02*
X0023450Y0135499D01*
X0023450Y0137097D02*
X0009600Y0137097D01*
X0009600Y0138696D02*
X0023450Y0138696D01*
X0023450Y0140294D02*
X0009600Y0140294D01*
X0009600Y0141893D02*
X0023450Y0141893D01*
X0023450Y0143491D02*
X0009600Y0143491D01*
X0009600Y0145090D02*
X0020327Y0145090D01*
X0020272Y0146688D02*
X0009600Y0146688D01*
X0009600Y0148287D02*
X0020272Y0148287D01*
X0020272Y0149885D02*
X0009600Y0149885D01*
X0009600Y0151484D02*
X0020272Y0151484D01*
X0020272Y0153082D02*
X0009600Y0153082D01*
X0009600Y0154681D02*
X0020272Y0154681D01*
X0020272Y0156279D02*
X0009600Y0156279D01*
X0009600Y0157878D02*
X0020272Y0157878D01*
X0020272Y0159476D02*
X0009600Y0159476D01*
X0009600Y0161075D02*
X0020272Y0161075D01*
X0020272Y0162673D02*
X0009600Y0162673D01*
X0009600Y0164272D02*
X0020272Y0164272D01*
X0020272Y0165870D02*
X0009600Y0165870D01*
X0009600Y0167469D02*
X0020272Y0167469D01*
X0020885Y0169068D02*
X0009600Y0169068D01*
X0009600Y0170666D02*
X0039800Y0170666D01*
X0039800Y0169068D02*
X0039408Y0169068D01*
X0039800Y0172265D02*
X0009600Y0172265D01*
X0009600Y0173863D02*
X0039800Y0173863D01*
X0039800Y0175462D02*
X0009600Y0175462D01*
X0009600Y0177060D02*
X0039800Y0177060D01*
X0039800Y0178659D02*
X0009600Y0178659D01*
X0009600Y0180257D02*
X0039800Y0180257D01*
X0039800Y0181856D02*
X0009600Y0181856D01*
X0009600Y0183454D02*
X0017714Y0183454D01*
X0018207Y0183125D02*
X0018207Y0183125D01*
X0021800Y0182410D01*
X0025393Y0183125D01*
X0028440Y0185160D01*
X0030475Y0188207D01*
X0031190Y0191800D01*
X0030475Y0195393D01*
X0030475Y0195393D01*
X0028440Y0198440D01*
X0028440Y0198440D01*
X0028440Y0198440D01*
X0025393Y0200475D01*
X0021800Y0201190D01*
X0018207Y0200475D01*
X0018207Y0200475D01*
X0015160Y0198440D01*
X0013125Y0195393D01*
X0012410Y0191800D01*
X0013125Y0188207D01*
X0013125Y0188207D01*
X0015160Y0185160D01*
X0015160Y0185160D01*
X0018207Y0183125D01*
X0015322Y0185053D02*
X0009600Y0185053D01*
X0009600Y0186651D02*
X0014164Y0186651D01*
X0013116Y0188250D02*
X0009600Y0188250D01*
X0009600Y0189848D02*
X0012798Y0189848D01*
X0012481Y0191447D02*
X0009600Y0191447D01*
X0009600Y0193045D02*
X0012658Y0193045D01*
X0012410Y0191800D02*
X0012410Y0191800D01*
X0012976Y0194644D02*
X0009600Y0194644D01*
X0009649Y0196242D02*
X0013692Y0196242D01*
X0013125Y0195393D02*
X0013125Y0195393D01*
X0014760Y0197841D02*
X0009999Y0197841D01*
X0010524Y0199439D02*
X0016657Y0199439D01*
X0015160Y0198440D02*
X0015160Y0198440D01*
X0015160Y0198440D01*
X0011686Y0201038D02*
X0021036Y0201038D01*
X0021800Y0201190D02*
X0021800Y0201190D01*
X0022564Y0201038D02*
X0091457Y0201038D01*
X0091501Y0201114D02*
X0091264Y0200703D01*
X0091142Y0200246D01*
X0091142Y0194976D01*
X0095218Y0194976D01*
X0095218Y0193624D01*
X0091142Y0193624D01*
X0091142Y0188354D01*
X0091264Y0187897D01*
X0091501Y0187486D01*
X0091837Y0187151D01*
X0092247Y0186914D01*
X0092705Y0186791D01*
X0095218Y0186791D01*
X0095218Y0193624D01*
X0096571Y0193624D01*
X0096571Y0194976D01*
X0100647Y0194976D01*
X0100647Y0200246D01*
X0100525Y0200703D01*
X0100288Y0201114D01*
X0099952Y0201449D01*
X0099542Y0201686D01*
X0099084Y0201809D01*
X0096571Y0201809D01*
X0096571Y0194976D01*
X0095218Y0194976D01*
X0095218Y0201809D01*
X0092705Y0201809D01*
X0092247Y0201686D01*
X0091837Y0201449D01*
X0091501Y0201114D01*
X0091142Y0199439D02*
X0026943Y0199439D01*
X0025393Y0200475D02*
X0025393Y0200475D01*
X0028840Y0197841D02*
X0091142Y0197841D01*
X0091142Y0196242D02*
X0029908Y0196242D01*
X0030624Y0194644D02*
X0095218Y0194644D01*
X0096571Y0194644D02*
X0102753Y0194644D01*
X0102753Y0196242D02*
X0100647Y0196242D01*
X0100647Y0197841D02*
X0102753Y0197841D01*
X0102753Y0199439D02*
X0100647Y0199439D01*
X0100332Y0201038D02*
X0102953Y0201038D01*
X0100647Y0193624D02*
X0096571Y0193624D01*
X0096571Y0186791D01*
X0099084Y0186791D01*
X0099542Y0186914D01*
X0099952Y0187151D01*
X0100288Y0187486D01*
X0100525Y0187897D01*
X0100647Y0188354D01*
X0100647Y0193624D01*
X0100647Y0193045D02*
X0102753Y0193045D01*
X0102753Y0191447D02*
X0100647Y0191447D01*
X0100647Y0189848D02*
X0102753Y0189848D01*
X0102753Y0188250D02*
X0100619Y0188250D01*
X0103865Y0186651D02*
X0029436Y0186651D01*
X0028440Y0185160D02*
X0028440Y0185160D01*
X0028278Y0185053D02*
X0104356Y0185053D01*
X0104328Y0183454D02*
X0099272Y0183454D01*
X0099272Y0181856D02*
X0104328Y0181856D01*
X0104328Y0180257D02*
X0099272Y0180257D01*
X0099272Y0178659D02*
X0104328Y0178659D01*
X0104328Y0177060D02*
X0099272Y0177060D01*
X0099272Y0175462D02*
X0104328Y0175462D01*
X0104356Y0173863D02*
X0095760Y0173863D01*
X0095760Y0172265D02*
X0104356Y0172265D01*
X0104356Y0170666D02*
X0095821Y0170666D01*
X0096576Y0169068D02*
X0104013Y0169068D01*
X0104013Y0167469D02*
X0096576Y0167469D01*
X0099131Y0162600D02*
X0102968Y0162600D01*
X0102968Y0161000D01*
X0099131Y0161000D01*
X0099131Y0161800D01*
X0099131Y0162600D01*
X0099131Y0161800D02*
X0093788Y0161800D01*
X0093788Y0161800D01*
X0088445Y0161800D01*
X0088445Y0160185D01*
X0088568Y0159727D01*
X0088805Y0159317D01*
X0089133Y0158989D01*
X0088245Y0158101D01*
X0088245Y0153688D01*
X0089000Y0152933D01*
X0089000Y0150168D01*
X0059712Y0120880D01*
X0057202Y0120880D01*
X0054202Y0123880D01*
X0049398Y0123880D01*
X0046000Y0120482D01*
X0046000Y0115677D01*
X0049398Y0112280D01*
X0054202Y0112280D01*
X0057202Y0115280D01*
X0061429Y0115280D01*
X0062458Y0115706D01*
X0063245Y0116493D01*
X0063245Y0116493D01*
X0073450Y0126698D01*
X0073450Y0090259D01*
X0068341Y0085150D01*
X0050296Y0085150D01*
X0050296Y0085778D01*
X0049124Y0086950D01*
X0042350Y0086950D01*
X0041800Y0086400D01*
X0041250Y0086950D01*
X0037451Y0086950D01*
X0030150Y0094251D01*
X0030150Y0143973D01*
X0038849Y0143973D01*
X0039800Y0144924D01*
X0039800Y0130972D01*
X0040972Y0129800D01*
X0062628Y0129800D01*
X0063800Y0130972D01*
X0063800Y0144924D01*
X0064751Y0143973D01*
X0082156Y0143973D01*
X0083328Y0145145D01*
X0083328Y0164356D01*
X0088877Y0164356D01*
X0088805Y0164283D01*
X0088568Y0163873D01*
X0088445Y0163415D01*
X0088445Y0161800D01*
X0093788Y0161800D01*
X0093788Y0161800D01*
X0099131Y0161800D01*
X0099131Y0161075D02*
X0102968Y0161075D01*
X0102969Y0161000D02*
X0104568Y0161000D01*
X0104568Y0158657D01*
X0104013Y0158101D01*
X0104013Y0153688D01*
X0104828Y0152873D01*
X0104828Y0152164D01*
X0095314Y0142650D01*
X0089402Y0142650D01*
X0094174Y0147422D01*
X0094600Y0148451D01*
X0094600Y0149565D01*
X0094600Y0152517D01*
X0095404Y0152517D01*
X0096576Y0153688D01*
X0096576Y0156429D01*
X0096839Y0156358D01*
X0102969Y0156358D01*
X0102969Y0161000D01*
X0102969Y0159476D02*
X0104568Y0159476D01*
X0104569Y0161075D02*
X0133450Y0161075D01*
X0133450Y0162673D02*
X0112261Y0162673D01*
X0112261Y0164272D02*
X0133450Y0164272D01*
X0133450Y0165870D02*
X0112343Y0165870D01*
X0112343Y0167469D02*
X0116984Y0167469D01*
X0116001Y0169068D02*
X0112343Y0169068D01*
X0115414Y0177060D02*
X0116001Y0177060D01*
X0115414Y0178659D02*
X0144000Y0178659D01*
X0144000Y0180257D02*
X0115414Y0180257D01*
X0115414Y0181856D02*
X0144000Y0181856D01*
X0144000Y0183454D02*
X0135886Y0183454D01*
X0135393Y0183125D02*
X0138440Y0185160D01*
X0140475Y0188207D01*
X0141190Y0191800D01*
X0140475Y0195393D01*
X0140475Y0195393D01*
X0138440Y0198440D01*
X0138440Y0198440D01*
X0138440Y0198440D01*
X0135393Y0200475D01*
X0131800Y0201190D01*
X0128207Y0200475D01*
X0128207Y0200475D01*
X0125160Y0198440D01*
X0123125Y0195393D01*
X0122410Y0191800D01*
X0123125Y0188207D01*
X0123125Y0188207D01*
X0125160Y0185160D01*
X0125160Y0185160D01*
X0125160Y0185160D01*
X0128207Y0183125D01*
X0131800Y0182410D01*
X0135393Y0183125D01*
X0135393Y0183125D01*
X0138278Y0185053D02*
X0144000Y0185053D01*
X0144000Y0186651D02*
X0139436Y0186651D01*
X0138440Y0185160D02*
X0138440Y0185160D01*
X0138440Y0185160D01*
X0140475Y0188207D02*
X0140475Y0188207D01*
X0140484Y0188250D02*
X0144000Y0188250D01*
X0144000Y0189848D02*
X0140802Y0189848D01*
X0141119Y0191447D02*
X0144000Y0191447D01*
X0144000Y0193045D02*
X0140942Y0193045D01*
X0140624Y0194644D02*
X0144000Y0194644D01*
X0143951Y0196242D02*
X0139908Y0196242D01*
X0138840Y0197841D02*
X0143601Y0197841D01*
X0143076Y0199439D02*
X0136943Y0199439D01*
X0135393Y0200475D02*
X0135393Y0200475D01*
X0132564Y0201038D02*
X0141914Y0201038D01*
X0140044Y0202636D02*
X0013556Y0202636D01*
X0021800Y0182410D02*
X0021800Y0182410D01*
X0025886Y0183454D02*
X0040626Y0183454D01*
X0030802Y0189848D02*
X0091142Y0189848D01*
X0091170Y0188250D02*
X0030484Y0188250D01*
X0031119Y0191447D02*
X0091142Y0191447D01*
X0091142Y0193045D02*
X0030942Y0193045D01*
X0031190Y0191800D02*
X0031190Y0191800D01*
X0062974Y0183454D02*
X0088186Y0183454D01*
X0088186Y0181856D02*
X0063800Y0181856D01*
X0063800Y0180257D02*
X0088186Y0180257D01*
X0088186Y0178659D02*
X0063800Y0178659D01*
X0063800Y0177060D02*
X0088186Y0177060D01*
X0088186Y0175462D02*
X0063800Y0175462D01*
X0063800Y0173863D02*
X0089060Y0173863D01*
X0089060Y0172265D02*
X0063800Y0172265D01*
X0063800Y0170666D02*
X0080242Y0170666D01*
X0083328Y0164272D02*
X0088798Y0164272D01*
X0088445Y0162673D02*
X0083328Y0162673D01*
X0083328Y0161075D02*
X0088445Y0161075D01*
X0088712Y0159476D02*
X0083328Y0159476D01*
X0083328Y0157878D02*
X0088245Y0157878D01*
X0088245Y0156279D02*
X0083328Y0156279D01*
X0083328Y0154681D02*
X0088245Y0154681D01*
X0088851Y0153082D02*
X0083328Y0153082D01*
X0083328Y0151484D02*
X0089000Y0151484D01*
X0088718Y0149885D02*
X0083328Y0149885D01*
X0083328Y0148287D02*
X0087119Y0148287D01*
X0085521Y0146688D02*
X0083328Y0146688D01*
X0083273Y0145090D02*
X0083922Y0145090D01*
X0082324Y0143491D02*
X0063800Y0143491D01*
X0063800Y0141893D02*
X0080725Y0141893D01*
X0079127Y0140294D02*
X0063800Y0140294D01*
X0063800Y0138696D02*
X0077528Y0138696D01*
X0075930Y0137097D02*
X0063800Y0137097D01*
X0063800Y0135499D02*
X0074331Y0135499D01*
X0072733Y0133900D02*
X0063800Y0133900D01*
X0063800Y0132302D02*
X0071134Y0132302D01*
X0069536Y0130703D02*
X0063532Y0130703D01*
X0066339Y0127506D02*
X0030150Y0127506D01*
X0030150Y0125908D02*
X0064740Y0125908D01*
X0063142Y0124309D02*
X0030150Y0124309D01*
X0030150Y0122711D02*
X0048229Y0122711D01*
X0046630Y0121112D02*
X0030150Y0121112D01*
X0030150Y0119514D02*
X0046000Y0119514D01*
X0046000Y0117915D02*
X0030150Y0117915D01*
X0030150Y0116317D02*
X0046000Y0116317D01*
X0046959Y0114718D02*
X0030150Y0114718D01*
X0030150Y0113120D02*
X0048557Y0113120D01*
X0051800Y0118080D02*
X0060872Y0118080D01*
X0091800Y0149008D01*
X0091800Y0155894D01*
X0092410Y0155894D01*
X0096576Y0156279D02*
X0104013Y0156279D01*
X0104013Y0154681D02*
X0096576Y0154681D01*
X0095970Y0153082D02*
X0104618Y0153082D01*
X0104148Y0151484D02*
X0094600Y0151484D01*
X0094600Y0149885D02*
X0102549Y0149885D01*
X0100951Y0148287D02*
X0094532Y0148287D01*
X0093440Y0146688D02*
X0099352Y0146688D01*
X0097754Y0145090D02*
X0091842Y0145090D01*
X0090243Y0143491D02*
X0096155Y0143491D01*
X0100835Y0138696D02*
X0133450Y0138696D01*
X0133450Y0140294D02*
X0102433Y0140294D01*
X0104032Y0141893D02*
X0133450Y0141893D01*
X0133450Y0143491D02*
X0105630Y0143491D01*
X0107229Y0145090D02*
X0133450Y0145090D01*
X0133450Y0146688D02*
X0132599Y0146688D01*
X0132599Y0148287D02*
X0133450Y0148287D01*
X0133450Y0149885D02*
X0132599Y0149885D01*
X0132599Y0151484D02*
X0133450Y0151484D01*
X0133450Y0153082D02*
X0132599Y0153082D01*
X0132599Y0154681D02*
X0133450Y0154681D01*
X0133450Y0156279D02*
X0131468Y0156279D01*
X0133450Y0157878D02*
X0112343Y0157878D01*
X0112343Y0156279D02*
X0117132Y0156279D01*
X0116001Y0154681D02*
X0112343Y0154681D01*
X0112261Y0159476D02*
X0133450Y0159476D01*
X0133450Y0167469D02*
X0131616Y0167469D01*
X0132599Y0169068D02*
X0133117Y0169068D01*
X0137797Y0173863D02*
X0144000Y0173863D01*
X0144000Y0172265D02*
X0139395Y0172265D01*
X0138698Y0172962D02*
X0138698Y0172962D01*
X0136939Y0174721D02*
X0136939Y0174721D01*
X0136198Y0175462D02*
X0144000Y0175462D01*
X0144000Y0177060D02*
X0132599Y0177060D01*
X0131800Y0182410D02*
X0131800Y0182410D01*
X0128207Y0183125D02*
X0128207Y0183125D01*
X0127714Y0183454D02*
X0115414Y0183454D01*
X0111055Y0185053D02*
X0125322Y0185053D01*
X0124164Y0186651D02*
X0111546Y0186651D01*
X0112658Y0188250D02*
X0123116Y0188250D01*
X0122798Y0189848D02*
X0112658Y0189848D01*
X0112658Y0191447D02*
X0122481Y0191447D01*
X0122410Y0191800D02*
X0122410Y0191800D01*
X0122658Y0193045D02*
X0112658Y0193045D01*
X0112658Y0194644D02*
X0122976Y0194644D01*
X0123125Y0195393D02*
X0123125Y0195393D01*
X0123692Y0196242D02*
X0112658Y0196242D01*
X0112658Y0197841D02*
X0124760Y0197841D01*
X0125160Y0198440D02*
X0125160Y0198440D01*
X0125160Y0198440D01*
X0126657Y0199439D02*
X0112658Y0199439D01*
X0112458Y0201038D02*
X0131036Y0201038D01*
X0131800Y0201190D02*
X0131800Y0201190D01*
X0140150Y0170666D02*
X0144000Y0170666D01*
X0144000Y0169068D02*
X0140150Y0169068D01*
X0140150Y0167469D02*
X0144000Y0167469D01*
X0144000Y0165870D02*
X0140150Y0165870D01*
X0140150Y0164272D02*
X0144000Y0164272D01*
X0144000Y0162673D02*
X0140150Y0162673D01*
X0140150Y0161075D02*
X0144000Y0161075D01*
X0144000Y0159476D02*
X0140150Y0159476D01*
X0140150Y0157878D02*
X0144000Y0157878D01*
X0144000Y0156279D02*
X0140150Y0156279D01*
X0140150Y0154681D02*
X0144000Y0154681D01*
X0144000Y0153082D02*
X0140150Y0153082D01*
X0140150Y0151484D02*
X0144000Y0151484D01*
X0144000Y0149885D02*
X0140150Y0149885D01*
X0140150Y0148287D02*
X0144000Y0148287D01*
X0144000Y0146688D02*
X0140150Y0146688D01*
X0140150Y0145090D02*
X0144000Y0145090D01*
X0144000Y0143491D02*
X0140150Y0143491D01*
X0140150Y0141893D02*
X0144000Y0141893D01*
X0144000Y0140294D02*
X0140150Y0140294D01*
X0140150Y0138696D02*
X0144000Y0138696D01*
X0144000Y0137097D02*
X0140150Y0137097D01*
X0140150Y0135499D02*
X0144000Y0135499D01*
X0144000Y0133900D02*
X0140150Y0133900D01*
X0140150Y0132302D02*
X0144000Y0132302D01*
X0144000Y0130703D02*
X0140150Y0130703D01*
X0140150Y0129105D02*
X0144000Y0129105D01*
X0144000Y0127506D02*
X0140150Y0127506D01*
X0140150Y0125908D02*
X0144000Y0125908D01*
X0144000Y0124309D02*
X0140150Y0124309D01*
X0140150Y0122711D02*
X0144000Y0122711D01*
X0144000Y0121112D02*
X0140150Y0121112D01*
X0140150Y0119514D02*
X0144000Y0119514D01*
X0144000Y0117915D02*
X0140150Y0117915D01*
X0140150Y0116317D02*
X0144000Y0116317D01*
X0144000Y0114718D02*
X0140150Y0114718D01*
X0140150Y0113120D02*
X0144000Y0113120D01*
X0144000Y0111521D02*
X0140150Y0111521D01*
X0140150Y0109923D02*
X0144000Y0109923D01*
X0144000Y0108324D02*
X0140150Y0108324D01*
X0140150Y0106726D02*
X0144000Y0106726D01*
X0144000Y0105127D02*
X0140150Y0105127D01*
X0140150Y0103529D02*
X0144000Y0103529D01*
X0144000Y0101930D02*
X0140150Y0101930D01*
X0140150Y0100332D02*
X0144000Y0100332D01*
X0144000Y0098733D02*
X0140150Y0098733D01*
X0140150Y0097134D02*
X0144000Y0097134D01*
X0144000Y0095536D02*
X0139902Y0095536D01*
X0138675Y0093937D02*
X0144000Y0093937D01*
X0144000Y0092339D02*
X0137077Y0092339D01*
X0135478Y0090740D02*
X0144000Y0090740D01*
X0144000Y0089142D02*
X0133880Y0089142D01*
X0132281Y0087543D02*
X0144000Y0087543D01*
X0144000Y0085945D02*
X0130683Y0085945D01*
X0131537Y0084346D02*
X0144000Y0084346D01*
X0144000Y0082748D02*
X0131950Y0082748D01*
X0131950Y0081149D02*
X0144000Y0081149D01*
X0144000Y0079551D02*
X0131834Y0079551D01*
X0130236Y0077952D02*
X0144000Y0077952D01*
X0144000Y0076354D02*
X0083123Y0076354D01*
X0082626Y0076619D02*
X0083806Y0075989D01*
X0084918Y0075246D01*
X0085952Y0074397D01*
X0086897Y0073452D01*
X0087746Y0072418D01*
X0088489Y0071306D01*
X0089119Y0070126D01*
X0089631Y0068891D01*
X0090019Y0067611D01*
X0090280Y0066300D01*
X0090398Y0065100D01*
X0077600Y0065100D01*
X0077600Y0063500D01*
X0090398Y0063500D01*
X0090280Y0062300D01*
X0090019Y0060989D01*
X0089631Y0059709D01*
X0089119Y0058474D01*
X0088489Y0057294D01*
X0087746Y0056182D01*
X0086897Y0055148D01*
X0085952Y0054203D01*
X0084918Y0053354D01*
X0083806Y0052611D01*
X0082626Y0051981D01*
X0081391Y0051469D01*
X0080111Y0051081D01*
X0078800Y0050820D01*
X0077600Y0050702D01*
X0077600Y0063500D01*
X0076000Y0063500D01*
X0076000Y0050702D01*
X0074800Y0050820D01*
X0073489Y0051081D01*
X0072209Y0051469D01*
X0070974Y0051981D01*
X0069794Y0052611D01*
X0068682Y0053354D01*
X0067648Y0054203D01*
X0066703Y0055148D01*
X0065854Y0056182D01*
X0065111Y0057294D01*
X0064481Y0058474D01*
X0063969Y0059709D01*
X0063581Y0060989D01*
X0063320Y0062300D01*
X0063202Y0063500D01*
X0076000Y0063500D01*
X0076000Y0065100D01*
X0076000Y0077898D01*
X0074800Y0077780D01*
X0073489Y0077519D01*
X0072209Y0077131D01*
X0070974Y0076619D01*
X0069794Y0075989D01*
X0068682Y0075246D01*
X0067648Y0074397D01*
X0066703Y0073452D01*
X0065854Y0072418D01*
X0065111Y0071306D01*
X0064481Y0070126D01*
X0063969Y0068891D01*
X0063581Y0067611D01*
X0063320Y0066300D01*
X0063202Y0065100D01*
X0076000Y0065100D01*
X0077600Y0065100D01*
X0077600Y0077898D01*
X0078800Y0077780D01*
X0080111Y0077519D01*
X0081391Y0077131D01*
X0082626Y0076619D01*
X0085515Y0074755D02*
X0144000Y0074755D01*
X0144000Y0073157D02*
X0087139Y0073157D01*
X0088320Y0071558D02*
X0093730Y0071558D01*
X0093300Y0071128D02*
X0094472Y0072300D01*
X0109128Y0072300D01*
X0110300Y0071128D01*
X0110300Y0070150D01*
X0115322Y0070150D01*
X0116553Y0069640D01*
X0121190Y0065003D01*
X0124003Y0067816D01*
X0125660Y0067816D01*
X0131781Y0061695D01*
X0131781Y0060038D01*
X0121417Y0049674D01*
X0119760Y0049674D01*
X0113639Y0055796D01*
X0113639Y0057453D01*
X0116452Y0060266D01*
X0113268Y0063450D01*
X0110300Y0063450D01*
X0110300Y0062472D01*
X0109128Y0061300D01*
X0094472Y0061300D01*
X0093300Y0062472D01*
X0093300Y0071128D01*
X0093300Y0069960D02*
X0089188Y0069960D01*
X0089791Y0068361D02*
X0093300Y0068361D01*
X0093300Y0066763D02*
X0090188Y0066763D01*
X0090392Y0065164D02*
X0093300Y0065164D01*
X0093300Y0063566D02*
X0077600Y0063566D01*
X0077600Y0065164D02*
X0076000Y0065164D01*
X0076000Y0063566D02*
X0060300Y0063566D01*
X0060300Y0065164D02*
X0063208Y0065164D01*
X0063412Y0066763D02*
X0059666Y0066763D01*
X0060300Y0061967D02*
X0063386Y0061967D01*
X0063769Y0060369D02*
X0060300Y0060369D01*
X0060300Y0058770D02*
X0064358Y0058770D01*
X0065193Y0057172D02*
X0060000Y0057172D01*
X0055548Y0049179D02*
X0098052Y0049179D01*
X0097750Y0049481D02*
X0106800Y0040431D01*
X0115850Y0049481D01*
X0114918Y0050246D01*
X0113806Y0050989D01*
X0112626Y0051619D01*
X0111391Y0052131D01*
X0110111Y0052519D01*
X0108800Y0052780D01*
X0107469Y0052911D01*
X0106131Y0052911D01*
X0104800Y0052780D01*
X0103489Y0052519D01*
X0102209Y0052131D01*
X0100974Y0051619D01*
X0099794Y0050989D01*
X0098682Y0050246D01*
X0097750Y0049481D01*
X0097388Y0047581D02*
X0099651Y0047581D01*
X0098987Y0045982D02*
X0101249Y0045982D01*
X0100585Y0044384D02*
X0102848Y0044384D01*
X0102184Y0042785D02*
X0104446Y0042785D01*
X0103782Y0041187D02*
X0106045Y0041187D01*
X0107555Y0041187D02*
X0109818Y0041187D01*
X0109154Y0042785D02*
X0111416Y0042785D01*
X0110752Y0044384D02*
X0113015Y0044384D01*
X0112351Y0045982D02*
X0114613Y0045982D01*
X0113949Y0047581D02*
X0116212Y0047581D01*
X0117612Y0047581D02*
X0144000Y0047581D01*
X0144000Y0049179D02*
X0115548Y0049179D01*
X0114122Y0050778D02*
X0118657Y0050778D01*
X0117058Y0052376D02*
X0110582Y0052376D01*
X0113639Y0057172D02*
X0088407Y0057172D01*
X0089242Y0058770D02*
X0114957Y0058770D01*
X0116349Y0060369D02*
X0089831Y0060369D01*
X0090214Y0061967D02*
X0093804Y0061967D01*
X0087246Y0055573D02*
X0113861Y0055573D01*
X0115460Y0053975D02*
X0085674Y0053975D01*
X0083366Y0052376D02*
X0103018Y0052376D01*
X0099478Y0050778D02*
X0078369Y0050778D01*
X0077600Y0050778D02*
X0076000Y0050778D01*
X0075231Y0050778D02*
X0054122Y0050778D01*
X0050582Y0052376D02*
X0070234Y0052376D01*
X0067926Y0053975D02*
X0036368Y0053975D01*
X0036426Y0052376D02*
X0043018Y0052376D01*
X0039478Y0050778D02*
X0034943Y0050778D01*
X0033345Y0049179D02*
X0038052Y0049179D01*
X0034938Y0045982D02*
X0009600Y0045982D01*
X0009600Y0044384D02*
X0034173Y0044384D01*
X0033634Y0042785D02*
X0009600Y0042785D01*
X0009600Y0041187D02*
X0033309Y0041187D01*
X0033189Y0039588D02*
X0009600Y0039588D01*
X0009600Y0037990D02*
X0033252Y0037990D01*
X0033501Y0036391D02*
X0009600Y0036391D01*
X0009600Y0034793D02*
X0033944Y0034793D01*
X0034630Y0033194D02*
X0009600Y0033194D01*
X0026109Y0029997D02*
X0038628Y0029997D01*
X0038628Y0028399D02*
X0028467Y0028399D01*
X0029535Y0026800D02*
X0041410Y0026800D01*
X0030831Y0023603D02*
X0058254Y0023603D01*
X0057174Y0024683D02*
X0063055Y0018802D01*
X0063405Y0017957D01*
X0064348Y0017015D01*
X0065193Y0016665D01*
X0067538Y0014319D01*
X0069195Y0014319D01*
X0071381Y0016505D01*
X0082219Y0016505D01*
X0087940Y0010783D01*
X0089597Y0010783D01*
X0099961Y0021147D01*
X0099961Y0022804D01*
X0093840Y0028926D01*
X0092183Y0028926D01*
X0086462Y0023205D01*
X0074209Y0023205D01*
X0064953Y0032461D01*
X0063296Y0032461D01*
X0057174Y0026340D01*
X0057174Y0024683D01*
X0057174Y0025201D02*
X0030513Y0025201D01*
X0031149Y0022004D02*
X0059853Y0022004D01*
X0061451Y0020406D02*
X0030912Y0020406D01*
X0030594Y0018807D02*
X0063050Y0018807D01*
X0064153Y0017209D02*
X0029808Y0017209D01*
X0028740Y0015610D02*
X0066247Y0015610D01*
X0070487Y0015610D02*
X0083113Y0015610D01*
X0084712Y0014012D02*
X0026721Y0014012D01*
X0021816Y0012413D02*
X0086310Y0012413D01*
X0087909Y0010815D02*
X0013761Y0010815D01*
X0011794Y0012413D02*
X0021784Y0012413D01*
X0045381Y0039588D02*
X0045957Y0039588D01*
X0047643Y0039588D02*
X0048219Y0039588D01*
X0054972Y0028399D02*
X0059233Y0028399D01*
X0057635Y0026800D02*
X0052190Y0026800D01*
X0065818Y0031596D02*
X0095578Y0031596D01*
X0097964Y0031596D02*
X0100227Y0031596D01*
X0099563Y0033194D02*
X0101825Y0033194D01*
X0101161Y0034793D02*
X0103424Y0034793D01*
X0102760Y0036391D02*
X0105022Y0036391D01*
X0104358Y0037990D02*
X0106621Y0037990D01*
X0106979Y0037990D02*
X0109242Y0037990D01*
X0108578Y0036391D02*
X0110840Y0036391D01*
X0110176Y0034793D02*
X0112439Y0034793D01*
X0111775Y0033194D02*
X0114037Y0033194D01*
X0113373Y0031596D02*
X0115636Y0031596D01*
X0114972Y0029997D02*
X0127491Y0029997D01*
X0128207Y0030475D02*
X0125160Y0028440D01*
X0123125Y0025393D01*
X0122410Y0021800D01*
X0123125Y0018207D01*
X0125160Y0015160D01*
X0125160Y0015160D01*
X0128207Y0013125D01*
X0131800Y0012410D01*
X0135393Y0013125D01*
X0135393Y0013125D01*
X0138440Y0015160D01*
X0140475Y0018207D01*
X0141190Y0021800D01*
X0140475Y0025393D01*
X0140475Y0025393D01*
X0138440Y0028440D01*
X0138440Y0028440D01*
X0138440Y0028440D01*
X0135393Y0030475D01*
X0131800Y0031190D01*
X0128207Y0030475D01*
X0128207Y0030475D01*
X0131800Y0031190D02*
X0131800Y0031190D01*
X0135393Y0030475D02*
X0135393Y0030475D01*
X0136109Y0029997D02*
X0144000Y0029997D01*
X0144000Y0028399D02*
X0138467Y0028399D01*
X0139535Y0026800D02*
X0144000Y0026800D01*
X0144000Y0025201D02*
X0140513Y0025201D01*
X0140831Y0023603D02*
X0144000Y0023603D01*
X0144000Y0022004D02*
X0141149Y0022004D01*
X0140912Y0020406D02*
X0144000Y0020406D01*
X0144000Y0018807D02*
X0140594Y0018807D01*
X0140475Y0018207D02*
X0140475Y0018207D01*
X0139808Y0017209D02*
X0143939Y0017209D01*
X0143553Y0015610D02*
X0138740Y0015610D01*
X0138440Y0015160D02*
X0138440Y0015160D01*
X0138440Y0015160D01*
X0136721Y0014012D02*
X0142968Y0014012D01*
X0141806Y0012413D02*
X0131816Y0012413D01*
X0131800Y0012410D02*
X0131800Y0012410D01*
X0131784Y0012413D02*
X0091227Y0012413D01*
X0089629Y0010815D02*
X0139839Y0010815D01*
X0128207Y0013125D02*
X0128207Y0013125D01*
X0126879Y0014012D02*
X0092826Y0014012D01*
X0094424Y0015610D02*
X0124860Y0015610D01*
X0123792Y0017209D02*
X0096023Y0017209D01*
X0097621Y0018807D02*
X0123005Y0018807D01*
X0122688Y0020406D02*
X0099220Y0020406D01*
X0099961Y0022004D02*
X0122451Y0022004D01*
X0122410Y0021800D02*
X0122410Y0021800D01*
X0122769Y0023603D02*
X0099162Y0023603D01*
X0097564Y0025201D02*
X0123087Y0025201D01*
X0123125Y0025393D02*
X0123125Y0025393D01*
X0124065Y0026800D02*
X0112190Y0026800D01*
X0114972Y0028399D02*
X0125133Y0028399D01*
X0125160Y0028440D02*
X0125160Y0028440D01*
X0118970Y0033194D02*
X0144000Y0033194D01*
X0144000Y0031596D02*
X0118022Y0031596D01*
X0119656Y0034793D02*
X0144000Y0034793D01*
X0144000Y0036391D02*
X0120099Y0036391D01*
X0120348Y0037990D02*
X0144000Y0037990D01*
X0144000Y0039588D02*
X0120411Y0039588D01*
X0120291Y0041187D02*
X0144000Y0041187D01*
X0144000Y0042785D02*
X0119966Y0042785D01*
X0119427Y0044384D02*
X0144000Y0044384D01*
X0144000Y0045982D02*
X0118662Y0045982D01*
X0122520Y0050778D02*
X0144000Y0050778D01*
X0144000Y0052376D02*
X0124119Y0052376D01*
X0125717Y0053975D02*
X0144000Y0053975D01*
X0144000Y0055573D02*
X0127316Y0055573D01*
X0128914Y0057172D02*
X0144000Y0057172D01*
X0144000Y0058770D02*
X0130513Y0058770D01*
X0131781Y0060369D02*
X0144000Y0060369D01*
X0144000Y0061967D02*
X0131509Y0061967D01*
X0129910Y0063566D02*
X0144000Y0063566D01*
X0144000Y0065164D02*
X0128312Y0065164D01*
X0126713Y0066763D02*
X0144000Y0066763D01*
X0144000Y0068361D02*
X0117832Y0068361D01*
X0119430Y0066763D02*
X0122949Y0066763D01*
X0121351Y0065164D02*
X0121029Y0065164D01*
X0115781Y0069960D02*
X0144000Y0069960D01*
X0144000Y0071558D02*
X0109870Y0071558D01*
X0113364Y0077952D02*
X0055150Y0077952D01*
X0055150Y0076354D02*
X0070477Y0076354D01*
X0068085Y0074755D02*
X0055150Y0074755D01*
X0055150Y0073157D02*
X0066461Y0073157D01*
X0065280Y0071558D02*
X0055150Y0071558D01*
X0055150Y0069960D02*
X0064412Y0069960D01*
X0063809Y0068361D02*
X0055150Y0068361D01*
X0066354Y0055573D02*
X0034769Y0055573D01*
X0034170Y0066763D02*
X0009600Y0066763D01*
X0009600Y0068361D02*
X0034513Y0068361D01*
X0034513Y0069960D02*
X0009600Y0069960D01*
X0009600Y0071558D02*
X0034513Y0071558D01*
X0034513Y0073157D02*
X0009600Y0073157D01*
X0009600Y0074755D02*
X0034513Y0074755D01*
X0036857Y0087543D02*
X0070735Y0087543D01*
X0069136Y0085945D02*
X0050129Y0085945D01*
X0045420Y0093937D02*
X0057897Y0093937D01*
X0059240Y0092594D02*
X0055843Y0095992D01*
X0055843Y0100797D01*
X0059240Y0104194D01*
X0064045Y0104194D01*
X0067443Y0100797D01*
X0067443Y0095992D01*
X0064045Y0092594D01*
X0059240Y0092594D01*
X0056299Y0095536D02*
X0047019Y0095536D01*
X0047557Y0096075D02*
X0047557Y0098194D01*
X0042158Y0098194D01*
X0042158Y0098594D01*
X0047557Y0098594D01*
X0047557Y0100714D01*
X0044277Y0103994D01*
X0042157Y0103994D01*
X0042157Y0098595D01*
X0041757Y0098595D01*
X0041757Y0103994D01*
X0039638Y0103994D01*
X0036357Y0100714D01*
X0036357Y0098594D01*
X0041757Y0098594D01*
X0041757Y0098194D01*
X0042157Y0098194D01*
X0042157Y0092794D01*
X0044277Y0092794D01*
X0047557Y0096075D01*
X0047557Y0097134D02*
X0055843Y0097134D01*
X0055843Y0098733D02*
X0047557Y0098733D01*
X0047557Y0100332D02*
X0055843Y0100332D01*
X0056976Y0101930D02*
X0046342Y0101930D01*
X0044743Y0103529D02*
X0058574Y0103529D01*
X0064711Y0103529D02*
X0073450Y0103529D01*
X0073450Y0105127D02*
X0030150Y0105127D01*
X0030150Y0103529D02*
X0039172Y0103529D01*
X0037573Y0101930D02*
X0030150Y0101930D01*
X0030150Y0100332D02*
X0036357Y0100332D01*
X0036357Y0098733D02*
X0030150Y0098733D01*
X0030150Y0097134D02*
X0036357Y0097134D01*
X0036357Y0096075D02*
X0036357Y0098194D01*
X0041757Y0098194D01*
X0041757Y0092794D01*
X0039638Y0092794D01*
X0036357Y0096075D01*
X0036896Y0095536D02*
X0030150Y0095536D01*
X0030463Y0093937D02*
X0038495Y0093937D01*
X0041757Y0093937D02*
X0042157Y0093937D01*
X0042157Y0095536D02*
X0041757Y0095536D01*
X0041757Y0097134D02*
X0042157Y0097134D01*
X0042157Y0098733D02*
X0041757Y0098733D01*
X0041757Y0100332D02*
X0042157Y0100332D01*
X0042157Y0101930D02*
X0041757Y0101930D01*
X0041757Y0103529D02*
X0042157Y0103529D01*
X0033660Y0090740D02*
X0073450Y0090740D01*
X0073450Y0092339D02*
X0032062Y0092339D01*
X0035259Y0089142D02*
X0072333Y0089142D01*
X0073450Y0093937D02*
X0065388Y0093937D01*
X0066986Y0095536D02*
X0073450Y0095536D01*
X0073450Y0097134D02*
X0067443Y0097134D01*
X0067443Y0098733D02*
X0073450Y0098733D01*
X0073450Y0100332D02*
X0067443Y0100332D01*
X0066309Y0101930D02*
X0073450Y0101930D01*
X0073450Y0106726D02*
X0030150Y0106726D01*
X0030150Y0108324D02*
X0073450Y0108324D01*
X0073450Y0109923D02*
X0030150Y0109923D01*
X0030150Y0111521D02*
X0073450Y0111521D01*
X0073450Y0113120D02*
X0055043Y0113120D01*
X0056641Y0114718D02*
X0073450Y0114718D01*
X0073450Y0116317D02*
X0063069Y0116317D01*
X0064667Y0117915D02*
X0073450Y0117915D01*
X0073450Y0119514D02*
X0066266Y0119514D01*
X0067864Y0121112D02*
X0073450Y0121112D01*
X0073450Y0122711D02*
X0069463Y0122711D01*
X0071061Y0124309D02*
X0073450Y0124309D01*
X0073450Y0125908D02*
X0072660Y0125908D01*
X0067937Y0129105D02*
X0030150Y0129105D01*
X0030150Y0130703D02*
X0040068Y0130703D01*
X0039800Y0132302D02*
X0030150Y0132302D01*
X0030150Y0133900D02*
X0039800Y0133900D01*
X0039800Y0135499D02*
X0030150Y0135499D01*
X0030150Y0137097D02*
X0039800Y0137097D01*
X0039800Y0138696D02*
X0030150Y0138696D01*
X0030150Y0140294D02*
X0039800Y0140294D01*
X0039800Y0141893D02*
X0030150Y0141893D01*
X0030150Y0143491D02*
X0039800Y0143491D01*
X0055371Y0122711D02*
X0061543Y0122711D01*
X0059945Y0121112D02*
X0056970Y0121112D01*
X0080150Y0121112D02*
X0080950Y0121112D01*
X0080950Y0119514D02*
X0080150Y0119514D01*
X0080150Y0117915D02*
X0080950Y0117915D01*
X0080950Y0116317D02*
X0080150Y0116317D01*
X0080150Y0114718D02*
X0080950Y0114718D01*
X0080950Y0113120D02*
X0080150Y0113120D01*
X0080150Y0111521D02*
X0080950Y0111521D01*
X0080950Y0109923D02*
X0080150Y0109923D01*
X0080150Y0108324D02*
X0081078Y0108324D01*
X0080150Y0106726D02*
X0082137Y0106726D01*
X0083735Y0105127D02*
X0080150Y0105127D01*
X0080150Y0103529D02*
X0085944Y0103529D01*
X0088501Y0101930D02*
X0080150Y0101930D01*
X0080150Y0100332D02*
X0088688Y0100332D01*
X0080150Y0098733D02*
X0105950Y0098733D01*
X0105950Y0097134D02*
X0080150Y0097134D01*
X0080150Y0095536D02*
X0105950Y0095536D01*
X0105950Y0093937D02*
X0080150Y0093937D01*
X0080150Y0092339D02*
X0106523Y0092339D01*
X0108122Y0090740D02*
X0080150Y0090740D01*
X0080150Y0089142D02*
X0109720Y0089142D01*
X0111319Y0087543D02*
X0079876Y0087543D01*
X0078611Y0085945D02*
X0112917Y0085945D01*
X0112063Y0084346D02*
X0077013Y0084346D01*
X0075414Y0082748D02*
X0111650Y0082748D01*
X0111650Y0081149D02*
X0073816Y0081149D01*
X0072217Y0079551D02*
X0111766Y0079551D01*
X0119196Y0089142D02*
X0124404Y0089142D01*
X0123482Y0087543D02*
X0120118Y0087543D01*
X0120150Y0085945D02*
X0123450Y0085945D01*
X0122063Y0084346D02*
X0121537Y0084346D01*
X0120236Y0077952D02*
X0123364Y0077952D01*
X0126003Y0090740D02*
X0117597Y0090740D01*
X0115999Y0092339D02*
X0127601Y0092339D01*
X0129200Y0093937D02*
X0114400Y0093937D01*
X0112802Y0095536D02*
X0130798Y0095536D01*
X0132397Y0097134D02*
X0112650Y0097134D01*
X0112650Y0098733D02*
X0133450Y0098733D01*
X0133450Y0100332D02*
X0112650Y0100332D01*
X0112650Y0101930D02*
X0133450Y0101930D01*
X0133450Y0103529D02*
X0112650Y0103529D01*
X0112650Y0105127D02*
X0133450Y0105127D01*
X0133450Y0106726D02*
X0112650Y0106726D01*
X0112650Y0108324D02*
X0133450Y0108324D01*
X0133450Y0109923D02*
X0119449Y0109923D01*
X0121048Y0111521D02*
X0133450Y0111521D01*
X0133450Y0113120D02*
X0121768Y0113120D01*
X0121768Y0114718D02*
X0133450Y0114718D01*
X0133450Y0116317D02*
X0121768Y0116317D01*
X0120211Y0117915D02*
X0133450Y0117915D01*
X0133450Y0119514D02*
X0109882Y0119514D01*
X0108283Y0121112D02*
X0133450Y0121112D01*
X0133450Y0122711D02*
X0107256Y0122711D01*
X0107256Y0124309D02*
X0133450Y0124309D01*
X0133450Y0125908D02*
X0120151Y0125908D01*
X0118775Y0124531D02*
X0121568Y0127325D01*
X0121568Y0129116D01*
X0116984Y0129116D01*
X0116984Y0124531D01*
X0118775Y0124531D01*
X0116984Y0125908D02*
X0116616Y0125908D01*
X0116616Y0124531D02*
X0116616Y0129116D01*
X0112031Y0129116D01*
X0112031Y0127325D01*
X0114825Y0124531D01*
X0116616Y0124531D01*
X0116616Y0127506D02*
X0116984Y0127506D01*
X0116984Y0129105D02*
X0116616Y0129105D01*
X0116616Y0129116D02*
X0116984Y0129116D01*
X0116984Y0129484D01*
X0116616Y0129484D01*
X0116616Y0129116D01*
X0116616Y0129484D02*
X0112031Y0129484D01*
X0112031Y0131275D01*
X0114825Y0134068D01*
X0116616Y0134068D01*
X0116616Y0129484D01*
X0116984Y0129484D02*
X0116984Y0134068D01*
X0118775Y0134068D01*
X0121568Y0131275D01*
X0121568Y0129484D01*
X0116984Y0129484D01*
X0116984Y0130703D02*
X0116616Y0130703D01*
X0116616Y0132302D02*
X0116984Y0132302D01*
X0116984Y0133900D02*
X0116616Y0133900D01*
X0114657Y0133900D02*
X0107646Y0133900D01*
X0108662Y0132302D02*
X0113058Y0132302D01*
X0112031Y0130703D02*
X0108662Y0130703D01*
X0108662Y0129105D02*
X0112031Y0129105D01*
X0112031Y0127506D02*
X0108662Y0127506D01*
X0108662Y0125908D02*
X0113449Y0125908D01*
X0113389Y0117915D02*
X0111480Y0117915D01*
X0105202Y0114718D02*
X0104550Y0114718D01*
X0104550Y0113120D02*
X0105950Y0113120D01*
X0105950Y0111521D02*
X0104550Y0111521D01*
X0103951Y0109923D02*
X0105950Y0109923D01*
X0105950Y0108324D02*
X0104559Y0108324D01*
X0104540Y0108358D02*
X0104204Y0108693D01*
X0103794Y0108930D01*
X0103336Y0109053D01*
X0101020Y0109053D01*
X0101020Y0104780D01*
X0104899Y0104780D01*
X0104899Y0107490D01*
X0104777Y0107948D01*
X0104540Y0108358D01*
X0104899Y0106726D02*
X0105950Y0106726D01*
X0105950Y0105127D02*
X0104899Y0105127D01*
X0104899Y0103529D02*
X0105950Y0103529D01*
X0105950Y0101930D02*
X0104899Y0101930D01*
X0104591Y0100332D02*
X0105950Y0100332D01*
X0101020Y0100332D02*
X0100061Y0100332D01*
X0100061Y0101930D02*
X0101020Y0101930D01*
X0101020Y0103529D02*
X0100061Y0103529D01*
X0100061Y0105127D02*
X0101020Y0105127D01*
X0101020Y0106726D02*
X0100061Y0106726D01*
X0100061Y0108324D02*
X0101020Y0108324D01*
X0103512Y0116317D02*
X0103604Y0116317D01*
X0098088Y0116317D02*
X0096550Y0116317D01*
X0096550Y0117915D02*
X0097256Y0117915D01*
X0097050Y0119514D02*
X0096115Y0119514D01*
X0097050Y0121112D02*
X0087650Y0121112D01*
X0087650Y0119514D02*
X0089485Y0119514D01*
X0088280Y0117915D02*
X0087650Y0117915D01*
X0087842Y0122711D02*
X0097050Y0122711D01*
X0099150Y0125908D02*
X0094450Y0125908D01*
X0094450Y0127506D02*
X0099150Y0127506D01*
X0099150Y0129105D02*
X0094450Y0129105D01*
X0094450Y0130703D02*
X0099150Y0130703D01*
X0099150Y0132302D02*
X0094450Y0132302D01*
X0093434Y0133900D02*
X0100166Y0133900D01*
X0099335Y0137097D02*
X0133450Y0137097D01*
X0133450Y0135499D02*
X0089807Y0135499D01*
X0084761Y0129105D02*
X0083413Y0129105D01*
X0083162Y0127506D02*
X0081815Y0127506D01*
X0081564Y0125908D02*
X0080216Y0125908D01*
X0080150Y0124309D02*
X0080950Y0124309D01*
X0080950Y0122711D02*
X0080150Y0122711D01*
X0089441Y0124309D02*
X0100556Y0124309D01*
X0112650Y0109923D02*
X0114151Y0109923D01*
X0121568Y0127506D02*
X0133450Y0127506D01*
X0133450Y0129105D02*
X0121568Y0129105D01*
X0121568Y0130703D02*
X0133450Y0130703D01*
X0133450Y0132302D02*
X0120542Y0132302D01*
X0118943Y0133900D02*
X0133450Y0133900D01*
X0116001Y0146688D02*
X0108828Y0146688D01*
X0104013Y0157878D02*
X0102969Y0157878D01*
X0102969Y0162673D02*
X0104568Y0162673D01*
X0104568Y0164272D02*
X0102969Y0164272D01*
X0102969Y0165870D02*
X0104013Y0165870D01*
X0096571Y0188250D02*
X0095218Y0188250D01*
X0095218Y0189848D02*
X0096571Y0189848D01*
X0096571Y0191447D02*
X0095218Y0191447D01*
X0095218Y0193045D02*
X0096571Y0193045D01*
X0096571Y0196242D02*
X0095218Y0196242D01*
X0095218Y0197841D02*
X0096571Y0197841D01*
X0096571Y0199439D02*
X0095218Y0199439D01*
X0095218Y0201038D02*
X0096571Y0201038D01*
X0064192Y0169068D02*
X0063800Y0169068D01*
X0076000Y0076354D02*
X0077600Y0076354D01*
X0077600Y0074755D02*
X0076000Y0074755D01*
X0076000Y0073157D02*
X0077600Y0073157D01*
X0077600Y0071558D02*
X0076000Y0071558D01*
X0076000Y0069960D02*
X0077600Y0069960D01*
X0077600Y0068361D02*
X0076000Y0068361D01*
X0076000Y0066763D02*
X0077600Y0066763D01*
X0077600Y0061967D02*
X0076000Y0061967D01*
X0076000Y0060369D02*
X0077600Y0060369D01*
X0077600Y0058770D02*
X0076000Y0058770D01*
X0076000Y0057172D02*
X0077600Y0057172D01*
X0077600Y0055573D02*
X0076000Y0055573D01*
X0076000Y0053975D02*
X0077600Y0053975D01*
X0077600Y0052376D02*
X0076000Y0052376D01*
X0067417Y0029997D02*
X0098628Y0029997D01*
X0098628Y0028399D02*
X0094367Y0028399D01*
X0095965Y0026800D02*
X0101410Y0026800D01*
X0105381Y0039588D02*
X0105957Y0039588D01*
X0107643Y0039588D02*
X0108219Y0039588D01*
X0091656Y0028399D02*
X0069015Y0028399D01*
X0070614Y0026800D02*
X0090057Y0026800D01*
X0088459Y0025201D02*
X0072212Y0025201D01*
X0073811Y0023603D02*
X0086860Y0023603D01*
X0109796Y0061967D02*
X0114750Y0061967D01*
D29*
X0091800Y0054300D03*
X0086800Y0044300D03*
X0086800Y0034300D03*
X0076800Y0034300D03*
X0076800Y0044300D03*
X0066800Y0044300D03*
X0066800Y0034300D03*
X0061800Y0054300D03*
X0099800Y0159800D03*
X0099800Y0163800D03*
X0103800Y0163800D03*
X0103800Y0159800D03*
D30*
X0089300Y0111800D03*
M02*
