%
M48
M72
T01C0.0118
T02C0.0197
T03C0.0360
T04C0.0394
T05C0.0400
%
T01
X6180Y5430
X6680Y4430
X6680Y3430
X7680Y3430
X7680Y4430
X8680Y4430
X8680Y3430
X9180Y5430
X9980Y15980
X9980Y16380
X10380Y16380
X10380Y15980
T02
X8930Y11180
T03
X11680Y8180
X12680Y8180
T04
X11680Y11430
X11680Y12930
T05
X6164Y9839
X5180Y11808
X4196Y9839
M30
