G75*
%MOIN*%
%OFA0B0*%
%FSLAX25Y25*%
%IPPOS*%
%LPD*%
%AMOC8*
5,1,8,0,0,1.08239X$1,22.5*
%
%ADD10OC8,0.05937*%
%ADD11OC8,0.06300*%
%ADD12OC8,0.07600*%
%ADD13C,0.01600*%
%ADD14C,0.02781*%
%ADD15C,0.02700*%
%ADD16C,0.03569*%
D10*
X0116800Y0114300D03*
X0116800Y0129300D03*
D11*
X0116800Y0081800D03*
X0126800Y0081800D03*
D12*
X0061643Y0098394D03*
X0051800Y0118080D03*
X0041957Y0098394D03*
D13*
X0010513Y0014176D02*
X0012055Y0012055D01*
X0014176Y0010513D01*
X0016669Y0009703D01*
X0017980Y0009600D01*
X0135620Y0009600D01*
X0136931Y0009703D01*
X0139424Y0010513D01*
X0141545Y0012055D01*
X0143087Y0014176D01*
X0143897Y0016669D01*
X0144000Y0017980D01*
X0144000Y0195620D01*
X0143897Y0196931D01*
X0143087Y0199424D01*
X0141545Y0201545D01*
X0139424Y0203087D01*
X0136931Y0203897D01*
X0136931Y0203897D01*
X0135620Y0204000D01*
X0017980Y0204000D01*
X0016669Y0203897D01*
X0014176Y0203087D01*
X0012055Y0201545D01*
X0010513Y0199424D01*
X0009703Y0196931D01*
X0009600Y0195620D01*
X0009600Y0017980D01*
X0009703Y0016669D01*
X0010513Y0014176D01*
X0010632Y0014012D02*
X0016879Y0014012D01*
X0018207Y0013125D02*
X0015160Y0015160D01*
X0015160Y0015160D01*
X0013125Y0018207D01*
X0012410Y0021800D01*
X0012410Y0021800D01*
X0013125Y0025393D01*
X0013125Y0025393D01*
X0015160Y0028440D01*
X0015160Y0028440D01*
X0018207Y0030475D01*
X0018207Y0030475D01*
X0021800Y0031190D01*
X0021800Y0031190D01*
X0025393Y0030475D01*
X0025393Y0030475D01*
X0028440Y0028440D01*
X0028440Y0028440D01*
X0028440Y0028440D01*
X0030475Y0025393D01*
X0030475Y0025393D01*
X0031190Y0021800D01*
X0030475Y0018207D01*
X0030475Y0018207D01*
X0028440Y0015160D01*
X0028440Y0015160D01*
X0028440Y0015160D01*
X0025393Y0013125D01*
X0025393Y0013125D01*
X0021800Y0012410D01*
X0021800Y0012410D01*
X0018207Y0013125D01*
X0018207Y0013125D01*
X0014860Y0015610D02*
X0010047Y0015610D01*
X0009661Y0017209D02*
X0013792Y0017209D01*
X0013005Y0018807D02*
X0009600Y0018807D01*
X0009600Y0020406D02*
X0012688Y0020406D01*
X0012451Y0022004D02*
X0009600Y0022004D01*
X0009600Y0023603D02*
X0012769Y0023603D01*
X0013087Y0025201D02*
X0009600Y0025201D01*
X0009600Y0026800D02*
X0014065Y0026800D01*
X0015133Y0028399D02*
X0009600Y0028399D01*
X0009600Y0029997D02*
X0017491Y0029997D01*
X0009600Y0031596D02*
X0144000Y0031596D01*
X0144000Y0033194D02*
X0009600Y0033194D01*
X0009600Y0034793D02*
X0144000Y0034793D01*
X0144000Y0036391D02*
X0009600Y0036391D01*
X0009600Y0037990D02*
X0144000Y0037990D01*
X0144000Y0039588D02*
X0009600Y0039588D01*
X0009600Y0041187D02*
X0144000Y0041187D01*
X0144000Y0042785D02*
X0009600Y0042785D01*
X0009600Y0044384D02*
X0144000Y0044384D01*
X0144000Y0045982D02*
X0009600Y0045982D01*
X0009600Y0047581D02*
X0144000Y0047581D01*
X0144000Y0049179D02*
X0009600Y0049179D01*
X0009600Y0050778D02*
X0144000Y0050778D01*
X0144000Y0052376D02*
X0009600Y0052376D01*
X0009600Y0053975D02*
X0144000Y0053975D01*
X0144000Y0055573D02*
X0009600Y0055573D01*
X0009600Y0057172D02*
X0144000Y0057172D01*
X0144000Y0058770D02*
X0009600Y0058770D01*
X0009600Y0060369D02*
X0144000Y0060369D01*
X0144000Y0061967D02*
X0009600Y0061967D01*
X0009600Y0063566D02*
X0144000Y0063566D01*
X0144000Y0065164D02*
X0009600Y0065164D01*
X0009600Y0066763D02*
X0144000Y0066763D01*
X0144000Y0068361D02*
X0009600Y0068361D01*
X0009600Y0069960D02*
X0144000Y0069960D01*
X0144000Y0071558D02*
X0009600Y0071558D01*
X0009600Y0073157D02*
X0144000Y0073157D01*
X0144000Y0074755D02*
X0009600Y0074755D01*
X0009600Y0076354D02*
X0144000Y0076354D01*
X0144000Y0077952D02*
X0130236Y0077952D01*
X0128933Y0076650D02*
X0131950Y0079667D01*
X0131950Y0083933D01*
X0128933Y0086950D01*
X0124667Y0086950D01*
X0121800Y0084083D01*
X0118933Y0086950D01*
X0114667Y0086950D01*
X0111650Y0083933D01*
X0111650Y0079667D01*
X0114667Y0076650D01*
X0118933Y0076650D01*
X0121800Y0079517D01*
X0124667Y0076650D01*
X0128933Y0076650D01*
X0131834Y0079551D02*
X0144000Y0079551D01*
X0144000Y0081149D02*
X0131950Y0081149D01*
X0131950Y0082748D02*
X0144000Y0082748D01*
X0144000Y0084346D02*
X0131537Y0084346D01*
X0129938Y0085945D02*
X0144000Y0085945D01*
X0144000Y0087543D02*
X0009600Y0087543D01*
X0009600Y0085945D02*
X0113662Y0085945D01*
X0112063Y0084346D02*
X0009600Y0084346D01*
X0009600Y0082748D02*
X0111650Y0082748D01*
X0111650Y0081149D02*
X0009600Y0081149D01*
X0009600Y0079551D02*
X0111766Y0079551D01*
X0113364Y0077952D02*
X0009600Y0077952D01*
X0009600Y0089142D02*
X0144000Y0089142D01*
X0144000Y0090740D02*
X0009600Y0090740D01*
X0009600Y0092339D02*
X0144000Y0092339D01*
X0144000Y0093937D02*
X0065388Y0093937D01*
X0064045Y0092594D02*
X0067443Y0095992D01*
X0067443Y0100797D01*
X0064045Y0104194D01*
X0059240Y0104194D01*
X0055843Y0100797D01*
X0055843Y0095992D01*
X0059240Y0092594D01*
X0064045Y0092594D01*
X0066986Y0095536D02*
X0144000Y0095536D01*
X0144000Y0097134D02*
X0067443Y0097134D01*
X0067443Y0098733D02*
X0144000Y0098733D01*
X0144000Y0100332D02*
X0067443Y0100332D01*
X0066309Y0101930D02*
X0144000Y0101930D01*
X0144000Y0103529D02*
X0064711Y0103529D01*
X0058574Y0103529D02*
X0044743Y0103529D01*
X0044277Y0103994D02*
X0047557Y0100714D01*
X0047557Y0098594D01*
X0042158Y0098594D01*
X0042158Y0098194D01*
X0047557Y0098194D01*
X0047557Y0096075D01*
X0044277Y0092794D01*
X0042157Y0092794D01*
X0042157Y0098194D01*
X0041757Y0098194D01*
X0041757Y0092794D01*
X0039638Y0092794D01*
X0036357Y0096075D01*
X0036357Y0098194D01*
X0041757Y0098194D01*
X0041757Y0098594D01*
X0036357Y0098594D01*
X0036357Y0100714D01*
X0039638Y0103994D01*
X0041757Y0103994D01*
X0041757Y0098595D01*
X0042157Y0098595D01*
X0042157Y0103994D01*
X0044277Y0103994D01*
X0042157Y0103529D02*
X0041757Y0103529D01*
X0041757Y0101930D02*
X0042157Y0101930D01*
X0042157Y0100332D02*
X0041757Y0100332D01*
X0041757Y0098733D02*
X0042157Y0098733D01*
X0042157Y0097134D02*
X0041757Y0097134D01*
X0041757Y0095536D02*
X0042157Y0095536D01*
X0042157Y0093937D02*
X0041757Y0093937D01*
X0038495Y0093937D02*
X0009600Y0093937D01*
X0009600Y0095536D02*
X0036896Y0095536D01*
X0036357Y0097134D02*
X0009600Y0097134D01*
X0009600Y0098733D02*
X0036357Y0098733D01*
X0036357Y0100332D02*
X0009600Y0100332D01*
X0009600Y0101930D02*
X0037573Y0101930D01*
X0039172Y0103529D02*
X0009600Y0103529D01*
X0009600Y0105127D02*
X0144000Y0105127D01*
X0144000Y0106726D02*
X0009600Y0106726D01*
X0009600Y0108324D02*
X0087803Y0108324D01*
X0087156Y0108592D02*
X0088547Y0108016D01*
X0090053Y0108016D01*
X0091444Y0108592D01*
X0092508Y0109656D01*
X0092942Y0110705D01*
X0093188Y0110950D01*
X0113123Y0110950D01*
X0114742Y0109331D01*
X0118858Y0109331D01*
X0121768Y0112242D01*
X0121768Y0116358D01*
X0118858Y0119268D01*
X0114742Y0119268D01*
X0113123Y0117650D01*
X0091134Y0117650D01*
X0089902Y0117140D01*
X0088960Y0116198D01*
X0088205Y0115442D01*
X0087156Y0115008D01*
X0086092Y0113944D01*
X0085516Y0112553D01*
X0085516Y0111047D01*
X0086092Y0109656D01*
X0087156Y0108592D01*
X0085982Y0109923D02*
X0009600Y0109923D01*
X0009600Y0111521D02*
X0085516Y0111521D01*
X0085751Y0113120D02*
X0055043Y0113120D01*
X0054202Y0112280D02*
X0057600Y0115677D01*
X0057600Y0120482D01*
X0054202Y0123880D01*
X0049398Y0123880D01*
X0046000Y0120482D01*
X0046000Y0115677D01*
X0049398Y0112280D01*
X0054202Y0112280D01*
X0056641Y0114718D02*
X0086866Y0114718D01*
X0089079Y0116317D02*
X0057600Y0116317D01*
X0057600Y0117915D02*
X0113389Y0117915D01*
X0114825Y0124531D02*
X0112031Y0127325D01*
X0112031Y0129116D01*
X0116616Y0129116D01*
X0116616Y0129484D01*
X0112031Y0129484D01*
X0112031Y0131275D01*
X0114825Y0134068D01*
X0116616Y0134068D01*
X0116616Y0129484D01*
X0116984Y0129484D01*
X0116984Y0134068D01*
X0118775Y0134068D01*
X0121568Y0131275D01*
X0121568Y0129484D01*
X0116984Y0129484D01*
X0116984Y0129116D01*
X0116984Y0124531D01*
X0118775Y0124531D01*
X0121568Y0127325D01*
X0121568Y0129116D01*
X0116984Y0129116D01*
X0116616Y0129116D01*
X0116616Y0124531D01*
X0114825Y0124531D01*
X0113449Y0125908D02*
X0009600Y0125908D01*
X0009600Y0127506D02*
X0112031Y0127506D01*
X0112031Y0129105D02*
X0009600Y0129105D01*
X0009600Y0130703D02*
X0040068Y0130703D01*
X0039800Y0130972D02*
X0040972Y0129800D01*
X0062628Y0129800D01*
X0063800Y0130972D01*
X0063800Y0182628D01*
X0062628Y0183800D01*
X0040972Y0183800D01*
X0039800Y0182628D01*
X0039800Y0130972D01*
X0039800Y0132302D02*
X0009600Y0132302D01*
X0009600Y0133900D02*
X0039800Y0133900D01*
X0039800Y0135499D02*
X0009600Y0135499D01*
X0009600Y0137097D02*
X0039800Y0137097D01*
X0039800Y0138696D02*
X0009600Y0138696D01*
X0009600Y0140294D02*
X0039800Y0140294D01*
X0039800Y0141893D02*
X0009600Y0141893D01*
X0009600Y0143491D02*
X0039800Y0143491D01*
X0039800Y0145090D02*
X0009600Y0145090D01*
X0009600Y0146688D02*
X0039800Y0146688D01*
X0039800Y0148287D02*
X0009600Y0148287D01*
X0009600Y0149885D02*
X0039800Y0149885D01*
X0039800Y0151484D02*
X0009600Y0151484D01*
X0009600Y0153082D02*
X0039800Y0153082D01*
X0039800Y0154681D02*
X0009600Y0154681D01*
X0009600Y0156279D02*
X0039800Y0156279D01*
X0039800Y0157878D02*
X0009600Y0157878D01*
X0009600Y0159476D02*
X0039800Y0159476D01*
X0039800Y0161075D02*
X0009600Y0161075D01*
X0009600Y0162673D02*
X0039800Y0162673D01*
X0039800Y0164272D02*
X0009600Y0164272D01*
X0009600Y0165870D02*
X0039800Y0165870D01*
X0039800Y0167469D02*
X0009600Y0167469D01*
X0009600Y0169068D02*
X0039800Y0169068D01*
X0039800Y0170666D02*
X0009600Y0170666D01*
X0009600Y0172265D02*
X0039800Y0172265D01*
X0039800Y0173863D02*
X0009600Y0173863D01*
X0009600Y0175462D02*
X0039800Y0175462D01*
X0039800Y0177060D02*
X0009600Y0177060D01*
X0009600Y0178659D02*
X0039800Y0178659D01*
X0039800Y0180257D02*
X0009600Y0180257D01*
X0009600Y0181856D02*
X0039800Y0181856D01*
X0040626Y0183454D02*
X0025886Y0183454D01*
X0025393Y0183125D02*
X0028440Y0185160D01*
X0030475Y0188207D01*
X0031190Y0191800D01*
X0030475Y0195393D01*
X0030475Y0195393D01*
X0028440Y0198440D01*
X0028440Y0198440D01*
X0028440Y0198440D01*
X0025393Y0200475D01*
X0021800Y0201190D01*
X0018207Y0200475D01*
X0018207Y0200475D01*
X0015160Y0198440D01*
X0013125Y0195393D01*
X0012410Y0191800D01*
X0013125Y0188207D01*
X0013125Y0188207D01*
X0015160Y0185160D01*
X0015160Y0185160D01*
X0018207Y0183125D01*
X0021800Y0182410D01*
X0025393Y0183125D01*
X0028278Y0185053D02*
X0125322Y0185053D01*
X0125160Y0185160D02*
X0128207Y0183125D01*
X0131800Y0182410D01*
X0135393Y0183125D01*
X0135393Y0183125D01*
X0138440Y0185160D01*
X0140475Y0188207D01*
X0141190Y0191800D01*
X0140475Y0195393D01*
X0140475Y0195393D01*
X0138440Y0198440D01*
X0138440Y0198440D01*
X0138440Y0198440D01*
X0135393Y0200475D01*
X0131800Y0201190D01*
X0128207Y0200475D01*
X0128207Y0200475D01*
X0125160Y0198440D01*
X0123125Y0195393D01*
X0122410Y0191800D01*
X0123125Y0188207D01*
X0123125Y0188207D01*
X0125160Y0185160D01*
X0125160Y0185160D01*
X0125160Y0185160D01*
X0124164Y0186651D02*
X0029436Y0186651D01*
X0028440Y0185160D02*
X0028440Y0185160D01*
X0030484Y0188250D02*
X0123116Y0188250D01*
X0122798Y0189848D02*
X0030802Y0189848D01*
X0031119Y0191447D02*
X0122481Y0191447D01*
X0122410Y0191800D02*
X0122410Y0191800D01*
X0122658Y0193045D02*
X0030942Y0193045D01*
X0031190Y0191800D02*
X0031190Y0191800D01*
X0030624Y0194644D02*
X0122976Y0194644D01*
X0123125Y0195393D02*
X0123125Y0195393D01*
X0123692Y0196242D02*
X0029908Y0196242D01*
X0028840Y0197841D02*
X0124760Y0197841D01*
X0125160Y0198440D02*
X0125160Y0198440D01*
X0125160Y0198440D01*
X0126657Y0199439D02*
X0026943Y0199439D01*
X0025393Y0200475D02*
X0025393Y0200475D01*
X0022564Y0201038D02*
X0131036Y0201038D01*
X0131800Y0201190D02*
X0131800Y0201190D01*
X0132564Y0201038D02*
X0141914Y0201038D01*
X0143076Y0199439D02*
X0136943Y0199439D01*
X0135393Y0200475D02*
X0135393Y0200475D01*
X0138840Y0197841D02*
X0143601Y0197841D01*
X0143951Y0196242D02*
X0139908Y0196242D01*
X0140624Y0194644D02*
X0144000Y0194644D01*
X0144000Y0193045D02*
X0140942Y0193045D01*
X0141119Y0191447D02*
X0144000Y0191447D01*
X0144000Y0189848D02*
X0140802Y0189848D01*
X0140484Y0188250D02*
X0144000Y0188250D01*
X0144000Y0186651D02*
X0139436Y0186651D01*
X0138440Y0185160D02*
X0138440Y0185160D01*
X0138440Y0185160D01*
X0138278Y0185053D02*
X0144000Y0185053D01*
X0144000Y0183454D02*
X0135886Y0183454D01*
X0131800Y0182410D02*
X0131800Y0182410D01*
X0128207Y0183125D02*
X0128207Y0183125D01*
X0127714Y0183454D02*
X0062974Y0183454D01*
X0063800Y0181856D02*
X0144000Y0181856D01*
X0144000Y0180257D02*
X0063800Y0180257D01*
X0063800Y0178659D02*
X0144000Y0178659D01*
X0144000Y0177060D02*
X0063800Y0177060D01*
X0063800Y0175462D02*
X0144000Y0175462D01*
X0144000Y0173863D02*
X0063800Y0173863D01*
X0063800Y0172265D02*
X0144000Y0172265D01*
X0144000Y0170666D02*
X0063800Y0170666D01*
X0063800Y0169068D02*
X0144000Y0169068D01*
X0144000Y0167469D02*
X0063800Y0167469D01*
X0063800Y0165870D02*
X0144000Y0165870D01*
X0144000Y0164272D02*
X0063800Y0164272D01*
X0063800Y0162673D02*
X0144000Y0162673D01*
X0144000Y0161075D02*
X0063800Y0161075D01*
X0063800Y0159476D02*
X0144000Y0159476D01*
X0144000Y0157878D02*
X0063800Y0157878D01*
X0063800Y0156279D02*
X0144000Y0156279D01*
X0144000Y0154681D02*
X0063800Y0154681D01*
X0063800Y0153082D02*
X0144000Y0153082D01*
X0144000Y0151484D02*
X0063800Y0151484D01*
X0063800Y0149885D02*
X0144000Y0149885D01*
X0144000Y0148287D02*
X0063800Y0148287D01*
X0063800Y0146688D02*
X0144000Y0146688D01*
X0144000Y0145090D02*
X0063800Y0145090D01*
X0063800Y0143491D02*
X0144000Y0143491D01*
X0144000Y0141893D02*
X0063800Y0141893D01*
X0063800Y0140294D02*
X0144000Y0140294D01*
X0144000Y0138696D02*
X0063800Y0138696D01*
X0063800Y0137097D02*
X0144000Y0137097D01*
X0144000Y0135499D02*
X0063800Y0135499D01*
X0063800Y0133900D02*
X0114657Y0133900D01*
X0116616Y0133900D02*
X0116984Y0133900D01*
X0116984Y0132302D02*
X0116616Y0132302D01*
X0116616Y0130703D02*
X0116984Y0130703D01*
X0116984Y0129105D02*
X0116616Y0129105D01*
X0116616Y0127506D02*
X0116984Y0127506D01*
X0116984Y0125908D02*
X0116616Y0125908D01*
X0120151Y0125908D02*
X0144000Y0125908D01*
X0144000Y0127506D02*
X0121568Y0127506D01*
X0121568Y0129105D02*
X0144000Y0129105D01*
X0144000Y0130703D02*
X0121568Y0130703D01*
X0120542Y0132302D02*
X0144000Y0132302D01*
X0144000Y0133900D02*
X0118943Y0133900D01*
X0113058Y0132302D02*
X0063800Y0132302D01*
X0063532Y0130703D02*
X0112031Y0130703D01*
X0120211Y0117915D02*
X0144000Y0117915D01*
X0144000Y0116317D02*
X0121768Y0116317D01*
X0121768Y0114718D02*
X0144000Y0114718D01*
X0144000Y0113120D02*
X0121768Y0113120D01*
X0121048Y0111521D02*
X0144000Y0111521D01*
X0144000Y0109923D02*
X0119449Y0109923D01*
X0114151Y0109923D02*
X0092618Y0109923D01*
X0090797Y0108324D02*
X0144000Y0108324D01*
X0144000Y0119514D02*
X0057600Y0119514D01*
X0056970Y0121112D02*
X0144000Y0121112D01*
X0144000Y0122711D02*
X0055371Y0122711D01*
X0048229Y0122711D02*
X0009600Y0122711D01*
X0009600Y0124309D02*
X0144000Y0124309D01*
X0123662Y0085945D02*
X0119938Y0085945D01*
X0121537Y0084346D02*
X0122063Y0084346D01*
X0123364Y0077952D02*
X0120236Y0077952D01*
X0128207Y0030475D02*
X0125160Y0028440D01*
X0123125Y0025393D01*
X0122410Y0021800D01*
X0123125Y0018207D01*
X0123125Y0018207D01*
X0125160Y0015160D01*
X0125160Y0015160D01*
X0125160Y0015160D01*
X0128207Y0013125D01*
X0131800Y0012410D01*
X0135393Y0013125D01*
X0135393Y0013125D01*
X0138440Y0015160D01*
X0140475Y0018207D01*
X0141190Y0021800D01*
X0140475Y0025393D01*
X0140475Y0025393D01*
X0138440Y0028440D01*
X0138440Y0028440D01*
X0138440Y0028440D01*
X0135393Y0030475D01*
X0131800Y0031190D01*
X0128207Y0030475D01*
X0128207Y0030475D01*
X0127491Y0029997D02*
X0026109Y0029997D01*
X0028467Y0028399D02*
X0125133Y0028399D01*
X0125160Y0028440D02*
X0125160Y0028440D01*
X0125160Y0028440D01*
X0124065Y0026800D02*
X0029535Y0026800D01*
X0030513Y0025201D02*
X0123087Y0025201D01*
X0123125Y0025393D02*
X0123125Y0025393D01*
X0122769Y0023603D02*
X0030831Y0023603D01*
X0031149Y0022004D02*
X0122451Y0022004D01*
X0122410Y0021800D02*
X0122410Y0021800D01*
X0122688Y0020406D02*
X0030912Y0020406D01*
X0030594Y0018807D02*
X0123005Y0018807D01*
X0123792Y0017209D02*
X0029808Y0017209D01*
X0028740Y0015610D02*
X0124860Y0015610D01*
X0126879Y0014012D02*
X0026721Y0014012D01*
X0021816Y0012413D02*
X0131784Y0012413D01*
X0131800Y0012410D02*
X0131800Y0012410D01*
X0131816Y0012413D02*
X0141806Y0012413D01*
X0142968Y0014012D02*
X0136721Y0014012D01*
X0138440Y0015160D02*
X0138440Y0015160D01*
X0138440Y0015160D01*
X0138740Y0015610D02*
X0143553Y0015610D01*
X0143939Y0017209D02*
X0139808Y0017209D01*
X0140475Y0018207D02*
X0140475Y0018207D01*
X0140594Y0018807D02*
X0144000Y0018807D01*
X0144000Y0020406D02*
X0140912Y0020406D01*
X0141149Y0022004D02*
X0144000Y0022004D01*
X0144000Y0023603D02*
X0140831Y0023603D01*
X0140513Y0025201D02*
X0144000Y0025201D01*
X0144000Y0026800D02*
X0139535Y0026800D01*
X0138467Y0028399D02*
X0144000Y0028399D01*
X0144000Y0029997D02*
X0136109Y0029997D01*
X0135393Y0030475D02*
X0135393Y0030475D01*
X0131800Y0031190D02*
X0131800Y0031190D01*
X0128207Y0013125D02*
X0128207Y0013125D01*
X0139839Y0010815D02*
X0013761Y0010815D01*
X0011794Y0012413D02*
X0021784Y0012413D01*
X0045420Y0093937D02*
X0057897Y0093937D01*
X0056299Y0095536D02*
X0047019Y0095536D01*
X0047557Y0097134D02*
X0055843Y0097134D01*
X0055843Y0098733D02*
X0047557Y0098733D01*
X0047557Y0100332D02*
X0055843Y0100332D01*
X0056976Y0101930D02*
X0046342Y0101930D01*
X0048557Y0113120D02*
X0009600Y0113120D01*
X0009600Y0114718D02*
X0046959Y0114718D01*
X0046000Y0116317D02*
X0009600Y0116317D01*
X0009600Y0117915D02*
X0046000Y0117915D01*
X0046000Y0119514D02*
X0009600Y0119514D01*
X0009600Y0121112D02*
X0046630Y0121112D01*
X0021800Y0182410D02*
X0021800Y0182410D01*
X0018207Y0183125D02*
X0018207Y0183125D01*
X0017714Y0183454D02*
X0009600Y0183454D01*
X0009600Y0185053D02*
X0015322Y0185053D01*
X0014164Y0186651D02*
X0009600Y0186651D01*
X0009600Y0188250D02*
X0013116Y0188250D01*
X0012798Y0189848D02*
X0009600Y0189848D01*
X0009600Y0191447D02*
X0012481Y0191447D01*
X0012410Y0191800D02*
X0012410Y0191800D01*
X0012658Y0193045D02*
X0009600Y0193045D01*
X0009600Y0194644D02*
X0012976Y0194644D01*
X0013125Y0195393D02*
X0013125Y0195393D01*
X0013692Y0196242D02*
X0009649Y0196242D01*
X0009999Y0197841D02*
X0014760Y0197841D01*
X0015160Y0198440D02*
X0015160Y0198440D01*
X0015160Y0198440D01*
X0016657Y0199439D02*
X0010524Y0199439D01*
X0011686Y0201038D02*
X0021036Y0201038D01*
X0021800Y0201190D02*
X0021800Y0201190D01*
X0013556Y0202636D02*
X0140044Y0202636D01*
X0140475Y0188207D02*
X0140475Y0188207D01*
D14*
X0103800Y0163800D03*
X0103800Y0159800D03*
X0099800Y0159800D03*
X0099800Y0163800D03*
X0091800Y0054300D03*
X0086800Y0044300D03*
X0086800Y0034300D03*
X0076800Y0034300D03*
X0076800Y0044300D03*
X0066800Y0044300D03*
X0066800Y0034300D03*
X0061800Y0054300D03*
D15*
X0089300Y0111800D02*
X0091800Y0114300D01*
X0116800Y0114300D01*
D16*
X0089300Y0111800D03*
M02*
